<mxfile host="app.diagrams.net" modified="2023-05-01T14:48:45.193Z" agent="Mozilla/5.0 (Windows NT 10.0; Win64; x64) AppleWebKit/537.36 (KHTML, like Gecko) Chrome/112.0.0.0 Safari/537.36" etag="wKphURI8dnXzUdqyoHxB" version="21.2.3" type="github">
  <diagram id="C5RBs43oDa-KdzZeNtuy" name="Page-1">
    <mxGraphModel dx="2398" dy="1902" grid="1" gridSize="10" guides="0" tooltips="1" connect="1" arrows="1" fold="1" page="1" pageScale="1" pageWidth="827" pageHeight="1169" math="0" shadow="0">
      <root>
        <mxCell id="WIyWlLk6GJQsqaUBKTNV-0" />
        <mxCell id="WIyWlLk6GJQsqaUBKTNV-1" parent="WIyWlLk6GJQsqaUBKTNV-0" />
        <mxCell id="zkfFHV4jXpPFQw0GAbJ--17" value="Fact.FDL_FactDeliverys" style="swimlane;fontStyle=0;align=center;verticalAlign=top;childLayout=stackLayout;horizontal=1;startSize=26;horizontalStack=0;resizeParent=1;resizeLast=0;collapsible=1;marginBottom=0;rounded=1;shadow=0;strokeWidth=1;fillColor=#dae8fc;strokeColor=#6c8ebf;" parent="WIyWlLk6GJQsqaUBKTNV-1" vertex="1">
          <mxGeometry x="610" y="240" width="210" height="812" as="geometry">
            <mxRectangle x="550" y="140" width="160" height="26" as="alternateBounds" />
          </mxGeometry>
        </mxCell>
        <mxCell id="zkfFHV4jXpPFQw0GAbJ--18" value="PK ** FDL_Id" style="text;align=left;verticalAlign=top;spacingLeft=4;spacingRight=4;overflow=hidden;rotatable=0;points=[[0,0.5],[1,0.5]];portConstraint=eastwest;" parent="zkfFHV4jXpPFQw0GAbJ--17" vertex="1">
          <mxGeometry y="26" width="210" height="26" as="geometry" />
        </mxCell>
        <mxCell id="zkfFHV4jXpPFQw0GAbJ--19" value="         FDL_DeliveryId" style="text;align=left;verticalAlign=top;spacingLeft=4;spacingRight=4;overflow=hidden;rotatable=0;points=[[0,0.5],[1,0.5]];portConstraint=eastwest;rounded=0;shadow=0;html=0;" parent="zkfFHV4jXpPFQw0GAbJ--17" vertex="1">
          <mxGeometry y="52" width="210" height="26" as="geometry" />
        </mxCell>
        <mxCell id="yMNnYsmY4ad9jijK5Zf2-129" value="         FDL_CostPrice   " style="text;align=left;verticalAlign=top;spacingLeft=4;spacingRight=4;overflow=hidden;rotatable=0;points=[[0,0.5],[1,0.5]];portConstraint=eastwest;rounded=0;shadow=0;html=0;" parent="zkfFHV4jXpPFQw0GAbJ--17" vertex="1">
          <mxGeometry y="78" width="210" height="26" as="geometry" />
        </mxCell>
        <mxCell id="yMNnYsmY4ad9jijK5Zf2-130" value="         FDL_NetPriceTTC  " style="text;align=left;verticalAlign=top;spacingLeft=4;spacingRight=4;overflow=hidden;rotatable=0;points=[[0,0.5],[1,0.5]];portConstraint=eastwest;rounded=0;shadow=0;html=0;" parent="zkfFHV4jXpPFQw0GAbJ--17" vertex="1">
          <mxGeometry y="104" width="210" height="26" as="geometry" />
        </mxCell>
        <mxCell id="yMNnYsmY4ad9jijK5Zf2-131" value="         FDL_NetPriceHT  " style="text;align=left;verticalAlign=top;spacingLeft=4;spacingRight=4;overflow=hidden;rotatable=0;points=[[0,0.5],[1,0.5]];portConstraint=eastwest;rounded=0;shadow=0;html=0;" parent="zkfFHV4jXpPFQw0GAbJ--17" vertex="1">
          <mxGeometry y="130" width="210" height="26" as="geometry" />
        </mxCell>
        <mxCell id="yMNnYsmY4ad9jijK5Zf2-132" value="         FDL_Margin  " style="text;align=left;verticalAlign=top;spacingLeft=4;spacingRight=4;overflow=hidden;rotatable=0;points=[[0,0.5],[1,0.5]];portConstraint=eastwest;rounded=0;shadow=0;html=0;" parent="zkfFHV4jXpPFQw0GAbJ--17" vertex="1">
          <mxGeometry y="156" width="210" height="26" as="geometry" />
        </mxCell>
        <mxCell id="yMNnYsmY4ad9jijK5Zf2-133" value="         FDL_QtyDelivered  " style="text;align=left;verticalAlign=top;spacingLeft=4;spacingRight=4;overflow=hidden;rotatable=0;points=[[0,0.5],[1,0.5]];portConstraint=eastwest;rounded=0;shadow=0;html=0;" parent="zkfFHV4jXpPFQw0GAbJ--17" vertex="1">
          <mxGeometry y="182" width="210" height="26" as="geometry" />
        </mxCell>
        <mxCell id="yMNnYsmY4ad9jijK5Zf2-110" value="         FDL_DeliveryDateKey  " style="text;align=left;verticalAlign=top;spacingLeft=4;spacingRight=4;overflow=hidden;rotatable=0;points=[[0,0.5],[1,0.5]];portConstraint=eastwest;rounded=1;shadow=0;html=0;" parent="zkfFHV4jXpPFQw0GAbJ--17" vertex="1">
          <mxGeometry y="208" width="210" height="26" as="geometry" />
        </mxCell>
        <mxCell id="yMNnYsmY4ad9jijK5Zf2-107" value="         FDL_DeliveryCountryKey  " style="text;align=left;verticalAlign=top;spacingLeft=4;spacingRight=4;overflow=hidden;rotatable=0;points=[[0,0.5],[1,0.5]];portConstraint=eastwest;rounded=0;shadow=0;html=0;" parent="zkfFHV4jXpPFQw0GAbJ--17" vertex="1">
          <mxGeometry y="234" width="210" height="26" as="geometry" />
        </mxCell>
        <mxCell id="yMNnYsmY4ad9jijK5Zf2-103" value="         FDL_GroupCustomerKey  " style="text;align=left;verticalAlign=top;spacingLeft=4;spacingRight=4;overflow=hidden;rotatable=0;points=[[0,0.5],[1,0.5]];portConstraint=eastwest;rounded=0;shadow=0;html=0;" parent="zkfFHV4jXpPFQw0GAbJ--17" vertex="1">
          <mxGeometry y="260" width="210" height="26" as="geometry" />
        </mxCell>
        <mxCell id="yMNnYsmY4ad9jijK5Zf2-105" value="         FDL_OrderCustomerKey  " style="text;align=left;verticalAlign=top;spacingLeft=4;spacingRight=4;overflow=hidden;rotatable=0;points=[[0,0.5],[1,0.5]];portConstraint=eastwest;rounded=0;shadow=0;html=0;" parent="zkfFHV4jXpPFQw0GAbJ--17" vertex="1">
          <mxGeometry y="286" width="210" height="26" as="geometry" />
        </mxCell>
        <mxCell id="yMNnYsmY4ad9jijK5Zf2-106" value="         FDL_ThirdPartyKey  " style="text;align=left;verticalAlign=top;spacingLeft=4;spacingRight=4;overflow=hidden;rotatable=0;points=[[0,0.5],[1,0.5]];portConstraint=eastwest;rounded=0;shadow=0;html=0;" parent="zkfFHV4jXpPFQw0GAbJ--17" vertex="1">
          <mxGeometry y="312" width="210" height="26" as="geometry" />
        </mxCell>
        <mxCell id="yMNnYsmY4ad9jijK5Zf2-108" value="         FDL_InvoiceCountryKey" style="text;align=left;verticalAlign=top;spacingLeft=4;spacingRight=4;overflow=hidden;rotatable=0;points=[[0,0.5],[1,0.5]];portConstraint=eastwest;rounded=0;shadow=0;html=0;" parent="zkfFHV4jXpPFQw0GAbJ--17" vertex="1">
          <mxGeometry y="338" width="210" height="26" as="geometry" />
        </mxCell>
        <mxCell id="yMNnYsmY4ad9jijK5Zf2-112" value="         FDL_ShipmentDateKey  " style="text;align=left;verticalAlign=top;spacingLeft=4;spacingRight=4;overflow=hidden;rotatable=0;points=[[0,0.5],[1,0.5]];portConstraint=eastwest;rounded=1;shadow=0;html=0;" parent="zkfFHV4jXpPFQw0GAbJ--17" vertex="1">
          <mxGeometry y="364" width="210" height="26" as="geometry" />
        </mxCell>
        <mxCell id="yMNnYsmY4ad9jijK5Zf2-118" value="         FDL_OriginSiteKey&#xa;  " style="text;align=left;verticalAlign=top;spacingLeft=4;spacingRight=4;overflow=hidden;rotatable=0;points=[[0,0.5],[1,0.5]];portConstraint=eastwest;rounded=1;shadow=0;html=0;" parent="zkfFHV4jXpPFQw0GAbJ--17" vertex="1">
          <mxGeometry y="390" width="210" height="26" as="geometry" />
        </mxCell>
        <mxCell id="yMNnYsmY4ad9jijK5Zf2-119" value="         FDL_SalesSiteKey&#xa;  " style="text;align=left;verticalAlign=top;spacingLeft=4;spacingRight=4;overflow=hidden;rotatable=0;points=[[0,0.5],[1,0.5]];portConstraint=eastwest;rounded=1;shadow=0;html=0;" parent="zkfFHV4jXpPFQw0GAbJ--17" vertex="1">
          <mxGeometry y="416" width="210" height="26" as="geometry" />
        </mxCell>
        <mxCell id="yMNnYsmY4ad9jijK5Zf2-120" value="         FDL_ShippingSiteKey&#xa;  " style="text;align=left;verticalAlign=top;spacingLeft=4;spacingRight=4;overflow=hidden;rotatable=0;points=[[0,0.5],[1,0.5]];portConstraint=eastwest;rounded=1;shadow=0;html=0;" parent="zkfFHV4jXpPFQw0GAbJ--17" vertex="1">
          <mxGeometry y="442" width="210" height="26" as="geometry" />
        </mxCell>
        <mxCell id="yMNnYsmY4ad9jijK5Zf2-121" value="         FDL_ReceptionSiteKey&#xa;  " style="text;align=left;verticalAlign=top;spacingLeft=4;spacingRight=4;overflow=hidden;rotatable=0;points=[[0,0.5],[1,0.5]];portConstraint=eastwest;rounded=1;shadow=0;html=0;" parent="zkfFHV4jXpPFQw0GAbJ--17" vertex="1">
          <mxGeometry y="468" width="210" height="26" as="geometry" />
        </mxCell>
        <mxCell id="yMNnYsmY4ad9jijK5Zf2-123" value="         FDL_ReturnStatusKey&#xa;  " style="text;align=left;verticalAlign=top;spacingLeft=4;spacingRight=4;overflow=hidden;rotatable=0;points=[[0,0.5],[1,0.5]];portConstraint=eastwest;rounded=1;shadow=0;html=0;" parent="zkfFHV4jXpPFQw0GAbJ--17" vertex="1">
          <mxGeometry y="494" width="210" height="26" as="geometry" />
        </mxCell>
        <mxCell id="yMNnYsmY4ad9jijK5Zf2-126" value="         FDL_SalesPersonKey&#xa;  " style="text;align=left;verticalAlign=top;spacingLeft=4;spacingRight=4;overflow=hidden;rotatable=0;points=[[0,0.5],[1,0.5]];portConstraint=eastwest;rounded=1;shadow=0;html=0;" parent="zkfFHV4jXpPFQw0GAbJ--17" vertex="1">
          <mxGeometry y="520" width="210" height="26" as="geometry" />
        </mxCell>
        <mxCell id="yMNnYsmY4ad9jijK5Zf2-127" value="         FDL_DeliveryMethodKey&#xa;  " style="text;align=left;verticalAlign=top;spacingLeft=4;spacingRight=4;overflow=hidden;rotatable=0;points=[[0,0.5],[1,0.5]];portConstraint=eastwest;rounded=1;shadow=0;html=0;" parent="zkfFHV4jXpPFQw0GAbJ--17" vertex="1">
          <mxGeometry y="546" width="210" height="26" as="geometry" />
        </mxCell>
        <mxCell id="yMNnYsmY4ad9jijK5Zf2-122" value="         FDL_CompanyKey&#xa;  " style="text;align=left;verticalAlign=top;spacingLeft=4;spacingRight=4;overflow=hidden;rotatable=0;points=[[0,0.5],[1,0.5]];portConstraint=eastwest;rounded=1;shadow=0;html=0;" parent="zkfFHV4jXpPFQw0GAbJ--17" vertex="1">
          <mxGeometry y="572" width="210" height="26" as="geometry" />
        </mxCell>
        <mxCell id="yMNnYsmY4ad9jijK5Zf2-139" value="         FDL_ItemKey " style="text;align=left;verticalAlign=top;spacingLeft=4;spacingRight=4;overflow=hidden;rotatable=0;points=[[0,0.5],[1,0.5]];portConstraint=eastwest;rounded=0;shadow=0;html=0;" parent="zkfFHV4jXpPFQw0GAbJ--17" vertex="1">
          <mxGeometry y="598" width="210" height="26" as="geometry" />
        </mxCell>
        <mxCell id="ddzxB84qZO3PPZxsslgc-101" value="" style="line;html=1;strokeWidth=1;align=left;verticalAlign=middle;spacingTop=-1;spacingLeft=3;spacingRight=3;rotatable=0;labelPosition=right;points=[];portConstraint=eastwest;" vertex="1" parent="zkfFHV4jXpPFQw0GAbJ--17">
          <mxGeometry y="624" width="210" height="58" as="geometry" />
        </mxCell>
        <mxCell id="yMNnYsmY4ad9jijK5Zf2-24" value="Fact.FIN_FactInvoice" style="swimlane;fontStyle=0;align=center;verticalAlign=top;childLayout=stackLayout;horizontal=1;startSize=26;horizontalStack=0;resizeParent=1;resizeLast=0;collapsible=1;marginBottom=0;rounded=1;shadow=0;strokeWidth=1;fillColor=#cdeb8b;strokeColor=#36393d;" parent="WIyWlLk6GJQsqaUBKTNV-1" vertex="1">
          <mxGeometry x="940" y="240" width="200" height="708" as="geometry">
            <mxRectangle x="550" y="140" width="160" height="26" as="alternateBounds" />
          </mxGeometry>
        </mxCell>
        <mxCell id="yMNnYsmY4ad9jijK5Zf2-25" value="PK ** FIN_Id" style="text;align=left;verticalAlign=top;spacingLeft=4;spacingRight=4;overflow=hidden;rotatable=0;points=[[0,0.5],[1,0.5]];portConstraint=eastwest;" parent="yMNnYsmY4ad9jijK5Zf2-24" vertex="1">
          <mxGeometry y="26" width="200" height="26" as="geometry" />
        </mxCell>
        <mxCell id="yMNnYsmY4ad9jijK5Zf2-26" value="         FIN_InvoiceId" style="text;align=left;verticalAlign=top;spacingLeft=4;spacingRight=4;overflow=hidden;rotatable=0;points=[[0,0.5],[1,0.5]];portConstraint=eastwest;rounded=0;shadow=0;html=0;" parent="yMNnYsmY4ad9jijK5Zf2-24" vertex="1">
          <mxGeometry y="52" width="200" height="26" as="geometry" />
        </mxCell>
        <mxCell id="yMNnYsmY4ad9jijK5Zf2-147" value="         FIN_NetPriceTTC&#xa; " style="text;align=left;verticalAlign=top;spacingLeft=4;spacingRight=4;overflow=hidden;rotatable=0;points=[[0,0.5],[1,0.5]];portConstraint=eastwest;rounded=0;shadow=0;html=0;" parent="yMNnYsmY4ad9jijK5Zf2-24" vertex="1">
          <mxGeometry y="78" width="200" height="26" as="geometry" />
        </mxCell>
        <mxCell id="yMNnYsmY4ad9jijK5Zf2-151" value="         FIN_NetPriceHT&#xa; " style="text;align=left;verticalAlign=top;spacingLeft=4;spacingRight=4;overflow=hidden;rotatable=0;points=[[0,0.5],[1,0.5]];portConstraint=eastwest;rounded=0;shadow=0;html=0;" parent="yMNnYsmY4ad9jijK5Zf2-24" vertex="1">
          <mxGeometry y="104" width="200" height="26" as="geometry" />
        </mxCell>
        <mxCell id="yMNnYsmY4ad9jijK5Zf2-152" value="         FIN_CostPrice  &#xa; " style="text;align=left;verticalAlign=top;spacingLeft=4;spacingRight=4;overflow=hidden;rotatable=0;points=[[0,0.5],[1,0.5]];portConstraint=eastwest;rounded=0;shadow=0;html=0;" parent="yMNnYsmY4ad9jijK5Zf2-24" vertex="1">
          <mxGeometry y="130" width="200" height="26" as="geometry" />
        </mxCell>
        <mxCell id="yMNnYsmY4ad9jijK5Zf2-153" value="         FIN_GrossPrice  &#xa; " style="text;align=left;verticalAlign=top;spacingLeft=4;spacingRight=4;overflow=hidden;rotatable=0;points=[[0,0.5],[1,0.5]];portConstraint=eastwest;rounded=0;shadow=0;html=0;" parent="yMNnYsmY4ad9jijK5Zf2-24" vertex="1">
          <mxGeometry y="156" width="200" height="26" as="geometry" />
        </mxCell>
        <mxCell id="yMNnYsmY4ad9jijK5Zf2-150" value="         FIN_Margin " style="text;align=left;verticalAlign=top;spacingLeft=4;spacingRight=4;overflow=hidden;rotatable=0;points=[[0,0.5],[1,0.5]];portConstraint=eastwest;rounded=0;shadow=0;html=0;" parent="yMNnYsmY4ad9jijK5Zf2-24" vertex="1">
          <mxGeometry y="182" width="200" height="26" as="geometry" />
        </mxCell>
        <mxCell id="yMNnYsmY4ad9jijK5Zf2-154" value="         FIN_QtyInvoice " style="text;align=left;verticalAlign=top;spacingLeft=4;spacingRight=4;overflow=hidden;rotatable=0;points=[[0,0.5],[1,0.5]];portConstraint=eastwest;rounded=0;shadow=0;html=0;" parent="yMNnYsmY4ad9jijK5Zf2-24" vertex="1">
          <mxGeometry y="208" width="200" height="26" as="geometry" />
        </mxCell>
        <mxCell id="yMNnYsmY4ad9jijK5Zf2-159" value="         FIN_Line " style="text;align=left;verticalAlign=top;spacingLeft=4;spacingRight=4;overflow=hidden;rotatable=0;points=[[0,0.5],[1,0.5]];portConstraint=eastwest;rounded=0;shadow=0;html=0;" parent="yMNnYsmY4ad9jijK5Zf2-24" vertex="1">
          <mxGeometry y="234" width="200" height="26" as="geometry" />
        </mxCell>
        <mxCell id="yMNnYsmY4ad9jijK5Zf2-160" value="         FIN_SequenceNumber " style="text;align=left;verticalAlign=top;spacingLeft=4;spacingRight=4;overflow=hidden;rotatable=0;points=[[0,0.5],[1,0.5]];portConstraint=eastwest;rounded=0;shadow=0;html=0;" parent="yMNnYsmY4ad9jijK5Zf2-24" vertex="1">
          <mxGeometry y="260" width="200" height="26" as="geometry" />
        </mxCell>
        <mxCell id="yMNnYsmY4ad9jijK5Zf2-174" value="         FIN_InvoiceDateKey" style="text;align=left;verticalAlign=top;spacingLeft=4;spacingRight=4;overflow=hidden;rotatable=0;points=[[0,0.5],[1,0.5]];portConstraint=eastwest;rounded=0;shadow=0;html=0;" parent="yMNnYsmY4ad9jijK5Zf2-24" vertex="1">
          <mxGeometry y="286" width="200" height="26" as="geometry" />
        </mxCell>
        <mxCell id="yMNnYsmY4ad9jijK5Zf2-182" value="         FIN_CountryKey&#xa;  " style="text;align=left;verticalAlign=top;spacingLeft=4;spacingRight=4;overflow=hidden;rotatable=0;points=[[0,0.5],[1,0.5]];portConstraint=eastwest;rounded=1;shadow=0;html=0;" parent="yMNnYsmY4ad9jijK5Zf2-24" vertex="1">
          <mxGeometry y="312" width="200" height="26" as="geometry" />
        </mxCell>
        <mxCell id="yMNnYsmY4ad9jijK5Zf2-164" value="         FIN_GroupCustomerKey  " style="text;align=left;verticalAlign=top;spacingLeft=4;spacingRight=4;overflow=hidden;rotatable=0;points=[[0,0.5],[1,0.5]];portConstraint=eastwest;rounded=0;shadow=0;html=0;" parent="yMNnYsmY4ad9jijK5Zf2-24" vertex="1">
          <mxGeometry y="338" width="200" height="26" as="geometry" />
        </mxCell>
        <mxCell id="yMNnYsmY4ad9jijK5Zf2-165" value="         FIN_InvoiceCustomerKey  " style="text;align=left;verticalAlign=top;spacingLeft=4;spacingRight=4;overflow=hidden;rotatable=0;points=[[0,0.5],[1,0.5]];portConstraint=eastwest;rounded=0;shadow=0;html=0;" parent="yMNnYsmY4ad9jijK5Zf2-24" vertex="1">
          <mxGeometry y="364" width="200" height="26" as="geometry" />
        </mxCell>
        <mxCell id="yMNnYsmY4ad9jijK5Zf2-167" value="         FIN_ThirdPartyKey  " style="text;align=left;verticalAlign=top;spacingLeft=4;spacingRight=4;overflow=hidden;rotatable=0;points=[[0,0.5],[1,0.5]];portConstraint=eastwest;rounded=0;shadow=0;html=0;" parent="yMNnYsmY4ad9jijK5Zf2-24" vertex="1">
          <mxGeometry y="390" width="200" height="26" as="geometry" />
        </mxCell>
        <mxCell id="yMNnYsmY4ad9jijK5Zf2-179" value="         FIN_ShippingSiteKey&#xa;  " style="text;align=left;verticalAlign=top;spacingLeft=4;spacingRight=4;overflow=hidden;rotatable=0;points=[[0,0.5],[1,0.5]];portConstraint=eastwest;rounded=1;shadow=0;html=0;" parent="yMNnYsmY4ad9jijK5Zf2-24" vertex="1">
          <mxGeometry y="416" width="200" height="26" as="geometry" />
        </mxCell>
        <mxCell id="yMNnYsmY4ad9jijK5Zf2-178" value="         FIN_SalesSiteKey&#xa;  " style="text;align=left;verticalAlign=top;spacingLeft=4;spacingRight=4;overflow=hidden;rotatable=0;points=[[0,0.5],[1,0.5]];portConstraint=eastwest;rounded=1;shadow=0;html=0;" parent="yMNnYsmY4ad9jijK5Zf2-24" vertex="1">
          <mxGeometry y="442" width="200" height="26" as="geometry" />
        </mxCell>
        <mxCell id="yMNnYsmY4ad9jijK5Zf2-177" value="         FIN_OriginSiteKey&#xa;  " style="text;align=left;verticalAlign=top;spacingLeft=4;spacingRight=4;overflow=hidden;rotatable=0;points=[[0,0.5],[1,0.5]];portConstraint=eastwest;rounded=1;shadow=0;html=0;" parent="yMNnYsmY4ad9jijK5Zf2-24" vertex="1">
          <mxGeometry y="468" width="200" height="26" as="geometry" />
        </mxCell>
        <mxCell id="yMNnYsmY4ad9jijK5Zf2-185" value="         FIN_InvoiceTypeKey  " style="text;align=left;verticalAlign=top;spacingLeft=4;spacingRight=4;overflow=hidden;rotatable=0;points=[[0,0.5],[1,0.5]];portConstraint=eastwest;rounded=1;shadow=0;html=0;" parent="yMNnYsmY4ad9jijK5Zf2-24" vertex="1">
          <mxGeometry y="494" width="200" height="26" as="geometry" />
        </mxCell>
        <mxCell id="yMNnYsmY4ad9jijK5Zf2-184" value="         FIN_InvoiceStatusKey  " style="text;align=left;verticalAlign=top;spacingLeft=4;spacingRight=4;overflow=hidden;rotatable=0;points=[[0,0.5],[1,0.5]];portConstraint=eastwest;rounded=1;shadow=0;html=0;" parent="yMNnYsmY4ad9jijK5Zf2-24" vertex="1">
          <mxGeometry y="520" width="200" height="26" as="geometry" />
        </mxCell>
        <mxCell id="em6dSbTbty4cNZg0iihS-0" value="        FIN_SalesPersonKey" style="text;align=left;verticalAlign=top;spacingLeft=4;spacingRight=4;overflow=hidden;rotatable=0;points=[[0,0.5],[1,0.5]];portConstraint=eastwest;rounded=1;shadow=0;html=0;" parent="yMNnYsmY4ad9jijK5Zf2-24" vertex="1">
          <mxGeometry y="546" width="200" height="26" as="geometry" />
        </mxCell>
        <mxCell id="em6dSbTbty4cNZg0iihS-1" value="        FIN_DeliveryMethodKey" style="text;align=left;verticalAlign=top;spacingLeft=4;spacingRight=4;overflow=hidden;rotatable=0;points=[[0,0.5],[1,0.5]];portConstraint=eastwest;rounded=1;shadow=0;html=0;" parent="yMNnYsmY4ad9jijK5Zf2-24" vertex="1">
          <mxGeometry y="572" width="200" height="26" as="geometry" />
        </mxCell>
        <mxCell id="yMNnYsmY4ad9jijK5Zf2-181" value="         FIN_CompanyKey&#xa;  " style="text;align=left;verticalAlign=top;spacingLeft=4;spacingRight=4;overflow=hidden;rotatable=0;points=[[0,0.5],[1,0.5]];portConstraint=eastwest;rounded=1;shadow=0;html=0;" parent="yMNnYsmY4ad9jijK5Zf2-24" vertex="1">
          <mxGeometry y="598" width="200" height="26" as="geometry" />
        </mxCell>
        <mxCell id="yMNnYsmY4ad9jijK5Zf2-162" value="         FIN_ItemKey " style="text;align=left;verticalAlign=top;spacingLeft=4;spacingRight=4;overflow=hidden;rotatable=0;points=[[0,0.5],[1,0.5]];portConstraint=eastwest;rounded=0;shadow=0;html=0;" parent="yMNnYsmY4ad9jijK5Zf2-24" vertex="1">
          <mxGeometry y="624" width="200" height="26" as="geometry" />
        </mxCell>
        <mxCell id="yMNnYsmY4ad9jijK5Zf2-169" value="" style="line;html=1;strokeWidth=1;align=left;verticalAlign=middle;spacingTop=-1;spacingLeft=3;spacingRight=3;rotatable=0;labelPosition=right;points=[];portConstraint=eastwest;" parent="yMNnYsmY4ad9jijK5Zf2-24" vertex="1">
          <mxGeometry y="650" width="200" height="58" as="geometry" />
        </mxCell>
        <mxCell id="yMNnYsmY4ad9jijK5Zf2-32" value="Fact.FSL_FactSales" style="swimlane;fontStyle=0;align=center;verticalAlign=top;childLayout=stackLayout;horizontal=1;startSize=26;horizontalStack=0;resizeParent=1;resizeLast=0;collapsible=1;marginBottom=0;rounded=1;shadow=0;strokeWidth=1;fillStyle=auto;fillColor=#e1d5e7;strokeColor=#9673a6;" parent="WIyWlLk6GJQsqaUBKTNV-1" vertex="1">
          <mxGeometry x="270" y="240" width="230" height="830" as="geometry">
            <mxRectangle x="550" y="140" width="160" height="26" as="alternateBounds" />
          </mxGeometry>
        </mxCell>
        <mxCell id="yMNnYsmY4ad9jijK5Zf2-33" value="PK ** FSL_Id" style="text;align=left;verticalAlign=top;spacingLeft=4;spacingRight=4;overflow=hidden;rotatable=0;points=[[0,0.5],[1,0.5]];portConstraint=eastwest;" parent="yMNnYsmY4ad9jijK5Zf2-32" vertex="1">
          <mxGeometry y="26" width="230" height="26" as="geometry" />
        </mxCell>
        <mxCell id="yMNnYsmY4ad9jijK5Zf2-96" value="         FSL_OrederId" style="text;align=left;verticalAlign=top;spacingLeft=4;spacingRight=4;overflow=hidden;rotatable=0;points=[[0,0.5],[1,0.5]];portConstraint=eastwest;rounded=0;shadow=0;html=0;" parent="yMNnYsmY4ad9jijK5Zf2-32" vertex="1">
          <mxGeometry y="52" width="230" height="24" as="geometry" />
        </mxCell>
        <mxCell id="yMNnYsmY4ad9jijK5Zf2-80" value="         FSL_QtyOrdered " style="text;align=left;verticalAlign=top;spacingLeft=4;spacingRight=4;overflow=hidden;rotatable=0;points=[[0,0.5],[1,0.5]];portConstraint=eastwest;rounded=0;shadow=0;html=0;" parent="yMNnYsmY4ad9jijK5Zf2-32" vertex="1">
          <mxGeometry y="76" width="230" height="26" as="geometry" />
        </mxCell>
        <mxCell id="yMNnYsmY4ad9jijK5Zf2-84" value="         FSL_Line " style="text;align=left;verticalAlign=top;spacingLeft=4;spacingRight=4;overflow=hidden;rotatable=0;points=[[0,0.5],[1,0.5]];portConstraint=eastwest;rounded=0;shadow=0;html=0;" parent="yMNnYsmY4ad9jijK5Zf2-32" vertex="1">
          <mxGeometry y="102" width="230" height="26" as="geometry" />
        </mxCell>
        <mxCell id="yMNnYsmY4ad9jijK5Zf2-85" value="         FSL_SequenceNumber " style="text;align=left;verticalAlign=top;spacingLeft=4;spacingRight=4;overflow=hidden;rotatable=0;points=[[0,0.5],[1,0.5]];portConstraint=eastwest;rounded=0;shadow=0;html=0;" parent="yMNnYsmY4ad9jijK5Zf2-32" vertex="1">
          <mxGeometry y="128" width="230" height="26" as="geometry" />
        </mxCell>
        <mxCell id="yMNnYsmY4ad9jijK5Zf2-90" value="         FSL_CostPrice " style="text;align=left;verticalAlign=top;spacingLeft=4;spacingRight=4;overflow=hidden;rotatable=0;points=[[0,0.5],[1,0.5]];portConstraint=eastwest;rounded=0;shadow=0;html=0;" parent="yMNnYsmY4ad9jijK5Zf2-32" vertex="1">
          <mxGeometry y="154" width="230" height="26" as="geometry" />
        </mxCell>
        <mxCell id="yMNnYsmY4ad9jijK5Zf2-91" value="         FSL_Margin" style="text;align=left;verticalAlign=top;spacingLeft=4;spacingRight=4;overflow=hidden;rotatable=0;points=[[0,0.5],[1,0.5]];portConstraint=eastwest;rounded=0;shadow=0;html=0;" parent="yMNnYsmY4ad9jijK5Zf2-32" vertex="1">
          <mxGeometry y="180" width="230" height="26" as="geometry" />
        </mxCell>
        <mxCell id="yMNnYsmY4ad9jijK5Zf2-92" value="         FSL_NetPriceTTC " style="text;align=left;verticalAlign=top;spacingLeft=4;spacingRight=4;overflow=hidden;rotatable=0;points=[[0,0.5],[1,0.5]];portConstraint=eastwest;rounded=0;shadow=0;html=0;" parent="yMNnYsmY4ad9jijK5Zf2-32" vertex="1">
          <mxGeometry y="206" width="230" height="26" as="geometry" />
        </mxCell>
        <mxCell id="yMNnYsmY4ad9jijK5Zf2-93" value="         FSL_NetPriceHT " style="text;align=left;verticalAlign=top;spacingLeft=4;spacingRight=4;overflow=hidden;rotatable=0;points=[[0,0.5],[1,0.5]];portConstraint=eastwest;rounded=0;shadow=0;html=0;" parent="yMNnYsmY4ad9jijK5Zf2-32" vertex="1">
          <mxGeometry y="232" width="230" height="26" as="geometry" />
        </mxCell>
        <mxCell id="yMNnYsmY4ad9jijK5Zf2-58" value="         FSL_OrderDateKey" style="text;align=left;verticalAlign=top;spacingLeft=4;spacingRight=4;overflow=hidden;rotatable=0;points=[[0,0.5],[1,0.5]];portConstraint=eastwest;rounded=0;shadow=0;html=0;" parent="yMNnYsmY4ad9jijK5Zf2-32" vertex="1">
          <mxGeometry y="258" width="230" height="26" as="geometry" />
        </mxCell>
        <mxCell id="bi2sYFUUaKAIFgb6Iuu--5" value="         FSL_DeliveryDateRequestedKey" style="text;align=left;verticalAlign=top;spacingLeft=4;spacingRight=4;overflow=hidden;rotatable=0;points=[[0,0.5],[1,0.5]];portConstraint=eastwest;rounded=0;shadow=0;html=0;" parent="yMNnYsmY4ad9jijK5Zf2-32" vertex="1">
          <mxGeometry y="284" width="230" height="26" as="geometry" />
        </mxCell>
        <mxCell id="yMNnYsmY4ad9jijK5Zf2-88" value="         FSL_ItemKey " style="text;align=left;verticalAlign=top;spacingLeft=4;spacingRight=4;overflow=hidden;rotatable=0;points=[[0,0.5],[1,0.5]];portConstraint=eastwest;rounded=0;shadow=0;html=0;" parent="yMNnYsmY4ad9jijK5Zf2-32" vertex="1">
          <mxGeometry y="310" width="230" height="26" as="geometry" />
        </mxCell>
        <mxCell id="yMNnYsmY4ad9jijK5Zf2-76" value="         FSL_CompanyKey" style="text;align=left;verticalAlign=top;spacingLeft=4;spacingRight=4;overflow=hidden;rotatable=0;points=[[0,0.5],[1,0.5]];portConstraint=eastwest;rounded=0;shadow=0;html=0;" parent="yMNnYsmY4ad9jijK5Zf2-32" vertex="1">
          <mxGeometry y="336" width="230" height="26" as="geometry" />
        </mxCell>
        <mxCell id="bi2sYFUUaKAIFgb6Iuu--4" value="         FSL_CountryOfOrderKey" style="text;align=left;verticalAlign=top;spacingLeft=4;spacingRight=4;overflow=hidden;rotatable=0;points=[[0,0.5],[1,0.5]];portConstraint=eastwest;rounded=0;shadow=0;html=0;" parent="yMNnYsmY4ad9jijK5Zf2-32" vertex="1">
          <mxGeometry y="362" width="230" height="26" as="geometry" />
        </mxCell>
        <mxCell id="ddzxB84qZO3PPZxsslgc-143" value="         FSL_DeliveryMethodKey" style="text;align=left;verticalAlign=top;spacingLeft=4;spacingRight=4;overflow=hidden;rotatable=0;points=[[0,0.5],[1,0.5]];portConstraint=eastwest;rounded=0;shadow=0;html=0;" vertex="1" parent="yMNnYsmY4ad9jijK5Zf2-32">
          <mxGeometry y="388" width="230" height="26" as="geometry" />
        </mxCell>
        <mxCell id="yMNnYsmY4ad9jijK5Zf2-46" value="         FSL_GroupCustomerKey" style="text;align=left;verticalAlign=top;spacingLeft=4;spacingRight=4;overflow=hidden;rotatable=0;points=[[0,0.5],[1,0.5]];portConstraint=eastwest;rounded=0;shadow=0;html=0;" parent="yMNnYsmY4ad9jijK5Zf2-32" vertex="1">
          <mxGeometry y="414" width="230" height="26" as="geometry" />
        </mxCell>
        <mxCell id="yMNnYsmY4ad9jijK5Zf2-47" value="         FSL_InvoiceCustomerKey" style="text;align=left;verticalAlign=top;spacingLeft=4;spacingRight=4;overflow=hidden;rotatable=0;points=[[0,0.5],[1,0.5]];portConstraint=eastwest;rounded=0;shadow=0;html=0;" parent="yMNnYsmY4ad9jijK5Zf2-32" vertex="1">
          <mxGeometry y="440" width="230" height="26" as="geometry" />
        </mxCell>
        <mxCell id="yMNnYsmY4ad9jijK5Zf2-48" value="         FSL_OrderCustomerKey" style="text;align=left;verticalAlign=top;spacingLeft=4;spacingRight=4;overflow=hidden;rotatable=0;points=[[0,0.5],[1,0.5]];portConstraint=eastwest;rounded=0;shadow=0;html=0;" parent="yMNnYsmY4ad9jijK5Zf2-32" vertex="1">
          <mxGeometry y="466" width="230" height="26" as="geometry" />
        </mxCell>
        <mxCell id="yMNnYsmY4ad9jijK5Zf2-49" value="         FSL_ThirdPartPayerKey" style="text;align=left;verticalAlign=top;spacingLeft=4;spacingRight=4;overflow=hidden;rotatable=0;points=[[0,0.5],[1,0.5]];portConstraint=eastwest;rounded=0;shadow=0;html=0;" parent="yMNnYsmY4ad9jijK5Zf2-32" vertex="1">
          <mxGeometry y="492" width="230" height="26" as="geometry" />
        </mxCell>
        <mxCell id="bi2sYFUUaKAIFgb6Iuu--1" value="         FSL_InvoiceCustomerKey" style="text;align=left;verticalAlign=top;spacingLeft=4;spacingRight=4;overflow=hidden;rotatable=0;points=[[0,0.5],[1,0.5]];portConstraint=eastwest;rounded=0;shadow=0;html=0;" parent="yMNnYsmY4ad9jijK5Zf2-32" vertex="1">
          <mxGeometry y="518" width="230" height="26" as="geometry" />
        </mxCell>
        <mxCell id="yMNnYsmY4ad9jijK5Zf2-70" value="         FSL_OrderStatusKey" style="text;align=left;verticalAlign=top;spacingLeft=4;spacingRight=4;overflow=hidden;rotatable=0;points=[[0,0.5],[1,0.5]];portConstraint=eastwest;rounded=0;shadow=0;html=0;" parent="yMNnYsmY4ad9jijK5Zf2-32" vertex="1">
          <mxGeometry y="544" width="230" height="26" as="geometry" />
        </mxCell>
        <mxCell id="yMNnYsmY4ad9jijK5Zf2-71" value="         FSL_OrderCategoryKey" style="text;align=left;verticalAlign=top;spacingLeft=4;spacingRight=4;overflow=hidden;rotatable=0;points=[[0,0.5],[1,0.5]];portConstraint=eastwest;rounded=0;shadow=0;html=0;" parent="yMNnYsmY4ad9jijK5Zf2-32" vertex="1">
          <mxGeometry y="570" width="230" height="26" as="geometry" />
        </mxCell>
        <mxCell id="yMNnYsmY4ad9jijK5Zf2-72" value="         FSL_OriginSiteKey" style="text;align=left;verticalAlign=top;spacingLeft=4;spacingRight=4;overflow=hidden;rotatable=0;points=[[0,0.5],[1,0.5]];portConstraint=eastwest;rounded=0;shadow=0;html=0;" parent="yMNnYsmY4ad9jijK5Zf2-32" vertex="1">
          <mxGeometry y="596" width="230" height="26" as="geometry" />
        </mxCell>
        <mxCell id="yMNnYsmY4ad9jijK5Zf2-73" value="         FSL_SalesSiteKey" style="text;align=left;verticalAlign=top;spacingLeft=4;spacingRight=4;overflow=hidden;rotatable=0;points=[[0,0.5],[1,0.5]];portConstraint=eastwest;rounded=0;shadow=0;html=0;" parent="yMNnYsmY4ad9jijK5Zf2-32" vertex="1">
          <mxGeometry y="622" width="230" height="26" as="geometry" />
        </mxCell>
        <mxCell id="yMNnYsmY4ad9jijK5Zf2-74" value="         FSL_ShippingSiteKey" style="text;align=left;verticalAlign=top;spacingLeft=4;spacingRight=4;overflow=hidden;rotatable=0;points=[[0,0.5],[1,0.5]];portConstraint=eastwest;rounded=0;shadow=0;html=0;" parent="yMNnYsmY4ad9jijK5Zf2-32" vertex="1">
          <mxGeometry y="648" width="230" height="26" as="geometry" />
        </mxCell>
        <mxCell id="yMNnYsmY4ad9jijK5Zf2-75" value="         FSL_SalesPersonKey" style="text;align=left;verticalAlign=top;spacingLeft=4;spacingRight=4;overflow=hidden;rotatable=0;points=[[0,0.5],[1,0.5]];portConstraint=eastwest;rounded=0;shadow=0;html=0;" parent="yMNnYsmY4ad9jijK5Zf2-32" vertex="1">
          <mxGeometry y="674" width="230" height="26" as="geometry" />
        </mxCell>
        <mxCell id="yMNnYsmY4ad9jijK5Zf2-87" value="" style="line;html=1;strokeWidth=1;align=left;verticalAlign=middle;spacingTop=-1;spacingLeft=3;spacingRight=3;rotatable=0;labelPosition=right;points=[];portConstraint=eastwest;" parent="yMNnYsmY4ad9jijK5Zf2-32" vertex="1">
          <mxGeometry y="700" width="230" height="8" as="geometry" />
        </mxCell>
        <mxCell id="ddzxB84qZO3PPZxsslgc-0" value="Dim.DDT_DimTime" style="swimlane;fontStyle=0;align=center;verticalAlign=top;childLayout=stackLayout;horizontal=1;startSize=26;horizontalStack=0;resizeParent=1;resizeLast=0;collapsible=1;marginBottom=0;rounded=1;shadow=0;strokeWidth=1;fillColor=#FAE5C7;strokeColor=#0F8B8D;labelBackgroundColor=none;fontColor=#143642;" vertex="1" parent="WIyWlLk6GJQsqaUBKTNV-1">
          <mxGeometry x="310" y="-70" width="172" height="220" as="geometry">
            <mxRectangle x="550" y="140" width="160" height="26" as="alternateBounds" />
          </mxGeometry>
        </mxCell>
        <mxCell id="ddzxB84qZO3PPZxsslgc-1" value="PK ** DDT_DateKey" style="text;align=left;verticalAlign=top;spacingLeft=4;spacingRight=4;overflow=hidden;rotatable=0;points=[[0,0.5],[1,0.5]];portConstraint=eastwest;labelBackgroundColor=none;fontColor=#143642;rounded=1;" vertex="1" parent="ddzxB84qZO3PPZxsslgc-0">
          <mxGeometry y="26" width="172" height="26" as="geometry" />
        </mxCell>
        <mxCell id="ddzxB84qZO3PPZxsslgc-2" value="        DDT_Date&#xa;" style="text;align=left;verticalAlign=top;spacingLeft=4;spacingRight=4;overflow=hidden;rotatable=0;points=[[0,0.5],[1,0.5]];portConstraint=eastwest;labelBackgroundColor=none;fontColor=#143642;rounded=1;" vertex="1" parent="ddzxB84qZO3PPZxsslgc-0">
          <mxGeometry y="52" width="172" height="26" as="geometry" />
        </mxCell>
        <mxCell id="ddzxB84qZO3PPZxsslgc-3" value="        DDT_Year&#xa;" style="text;align=left;verticalAlign=top;spacingLeft=4;spacingRight=4;overflow=hidden;rotatable=0;points=[[0,0.5],[1,0.5]];portConstraint=eastwest;labelBackgroundColor=none;fontColor=#143642;rounded=1;" vertex="1" parent="ddzxB84qZO3PPZxsslgc-0">
          <mxGeometry y="78" width="172" height="26" as="geometry" />
        </mxCell>
        <mxCell id="ddzxB84qZO3PPZxsslgc-4" value="        DDT_Semester&#xa;" style="text;align=left;verticalAlign=top;spacingLeft=4;spacingRight=4;overflow=hidden;rotatable=0;points=[[0,0.5],[1,0.5]];portConstraint=eastwest;labelBackgroundColor=none;fontColor=#143642;rounded=1;" vertex="1" parent="ddzxB84qZO3PPZxsslgc-0">
          <mxGeometry y="104" width="172" height="28" as="geometry" />
        </mxCell>
        <mxCell id="ddzxB84qZO3PPZxsslgc-5" value="        DDT_Quarter" style="text;align=left;verticalAlign=top;spacingLeft=4;spacingRight=4;overflow=hidden;rotatable=0;points=[[0,0.5],[1,0.5]];portConstraint=eastwest;labelBackgroundColor=none;fontColor=#143642;rounded=1;" vertex="1" parent="ddzxB84qZO3PPZxsslgc-0">
          <mxGeometry y="132" width="172" height="26" as="geometry" />
        </mxCell>
        <mxCell id="ddzxB84qZO3PPZxsslgc-6" value="        DDT_Month&#xa;" style="text;align=left;verticalAlign=top;spacingLeft=4;spacingRight=4;overflow=hidden;rotatable=0;points=[[0,0.5],[1,0.5]];portConstraint=eastwest;labelBackgroundColor=none;fontColor=#143642;rounded=1;" vertex="1" parent="ddzxB84qZO3PPZxsslgc-0">
          <mxGeometry y="158" width="172" height="26" as="geometry" />
        </mxCell>
        <mxCell id="ddzxB84qZO3PPZxsslgc-7" value="" style="line;html=1;strokeWidth=1;align=left;verticalAlign=middle;spacingTop=-1;spacingLeft=3;spacingRight=3;rotatable=0;labelPosition=right;points=[];portConstraint=eastwest;labelBackgroundColor=none;fillColor=#FAE5C7;strokeColor=#0F8B8D;fontColor=#143642;rounded=1;" vertex="1" parent="ddzxB84qZO3PPZxsslgc-0">
          <mxGeometry y="184" width="172" height="8" as="geometry" />
        </mxCell>
        <mxCell id="ddzxB84qZO3PPZxsslgc-8" value="Dim.DSI_DimItems" style="swimlane;fontStyle=0;align=center;verticalAlign=top;childLayout=stackLayout;horizontal=1;startSize=26;horizontalStack=0;resizeParent=1;resizeLast=0;collapsible=1;marginBottom=0;rounded=1;shadow=0;strokeWidth=1;fillColor=#FAE5C7;strokeColor=#0F8B8D;labelBackgroundColor=none;fontColor=#143642;" vertex="1" parent="WIyWlLk6GJQsqaUBKTNV-1">
          <mxGeometry x="-100" y="230" width="261" height="340" as="geometry">
            <mxRectangle x="550" y="140" width="160" height="26" as="alternateBounds" />
          </mxGeometry>
        </mxCell>
        <mxCell id="ddzxB84qZO3PPZxsslgc-9" value="PK ** DSI_ItemKey" style="text;align=left;verticalAlign=top;spacingLeft=4;spacingRight=4;overflow=hidden;rotatable=0;points=[[0,0.5],[1,0.5]];portConstraint=eastwest;labelBackgroundColor=none;fontColor=#143642;rounded=1;" vertex="1" parent="ddzxB84qZO3PPZxsslgc-8">
          <mxGeometry y="26" width="261" height="26" as="geometry" />
        </mxCell>
        <mxCell id="ddzxB84qZO3PPZxsslgc-10" value="         DSI_ItemId&#xa;" style="text;align=left;verticalAlign=top;spacingLeft=4;spacingRight=4;overflow=hidden;rotatable=0;points=[[0,0.5],[1,0.5]];portConstraint=eastwest;labelBackgroundColor=none;fontColor=#143642;rounded=1;" vertex="1" parent="ddzxB84qZO3PPZxsslgc-8">
          <mxGeometry y="52" width="261" height="26" as="geometry" />
        </mxCell>
        <mxCell id="ddzxB84qZO3PPZxsslgc-11" value="         DSI_ItemName&#xa;" style="text;align=left;verticalAlign=top;spacingLeft=4;spacingRight=4;overflow=hidden;rotatable=0;points=[[0,0.5],[1,0.5]];portConstraint=eastwest;labelBackgroundColor=none;fontColor=#143642;rounded=1;" vertex="1" parent="ddzxB84qZO3PPZxsslgc-8">
          <mxGeometry y="78" width="261" height="26" as="geometry" />
        </mxCell>
        <mxCell id="ddzxB84qZO3PPZxsslgc-12" value="         DSI_Warranty&#xa;" style="text;align=left;verticalAlign=top;spacingLeft=4;spacingRight=4;overflow=hidden;rotatable=0;points=[[0,0.5],[1,0.5]];portConstraint=eastwest;labelBackgroundColor=none;fontColor=#143642;rounded=1;" vertex="1" parent="ddzxB84qZO3PPZxsslgc-8">
          <mxGeometry y="104" width="261" height="26" as="geometry" />
        </mxCell>
        <mxCell id="ddzxB84qZO3PPZxsslgc-13" value="         DSI_StockItemDelivrable" style="text;align=left;verticalAlign=top;spacingLeft=4;spacingRight=4;overflow=hidden;rotatable=0;points=[[0,0.5],[1,0.5]];portConstraint=eastwest;labelBackgroundColor=none;fontColor=#143642;rounded=1;" vertex="1" parent="ddzxB84qZO3PPZxsslgc-8">
          <mxGeometry y="130" width="261" height="26" as="geometry" />
        </mxCell>
        <mxCell id="ddzxB84qZO3PPZxsslgc-14" value="         DSI_StockItemGeneric &#xa;" style="text;align=left;verticalAlign=top;spacingLeft=4;spacingRight=4;overflow=hidden;rotatable=0;points=[[0,0.5],[1,0.5]];portConstraint=eastwest;labelBackgroundColor=none;fontColor=#143642;rounded=1;" vertex="1" parent="ddzxB84qZO3PPZxsslgc-8">
          <mxGeometry y="156" width="261" height="26" as="geometry" />
        </mxCell>
        <mxCell id="ddzxB84qZO3PPZxsslgc-15" value="         DSI_StockItemManufactured" style="text;align=left;verticalAlign=top;spacingLeft=4;spacingRight=4;overflow=hidden;rotatable=0;points=[[0,0.5],[1,0.5]];portConstraint=eastwest;labelBackgroundColor=none;fontColor=#143642;rounded=1;" vertex="1" parent="ddzxB84qZO3PPZxsslgc-8">
          <mxGeometry y="182" width="261" height="26" as="geometry" />
        </mxCell>
        <mxCell id="ddzxB84qZO3PPZxsslgc-16" value="         DSI_StockItemPurchased" style="text;align=left;verticalAlign=top;spacingLeft=4;spacingRight=4;overflow=hidden;rotatable=0;points=[[0,0.5],[1,0.5]];portConstraint=eastwest;labelBackgroundColor=none;fontColor=#143642;rounded=1;" vertex="1" parent="ddzxB84qZO3PPZxsslgc-8">
          <mxGeometry y="208" width="261" height="26" as="geometry" />
        </mxCell>
        <mxCell id="ddzxB84qZO3PPZxsslgc-17" value="         DSI_StockItemSold&#xa;" style="text;align=left;verticalAlign=top;spacingLeft=4;spacingRight=4;overflow=hidden;rotatable=0;points=[[0,0.5],[1,0.5]];portConstraint=eastwest;labelBackgroundColor=none;fontColor=#143642;rounded=1;" vertex="1" parent="ddzxB84qZO3PPZxsslgc-8">
          <mxGeometry y="234" width="261" height="26" as="geometry" />
        </mxCell>
        <mxCell id="ddzxB84qZO3PPZxsslgc-18" value="         DSI_ConterBrand&#xa;" style="text;align=left;verticalAlign=top;spacingLeft=4;spacingRight=4;overflow=hidden;rotatable=0;points=[[0,0.5],[1,0.5]];portConstraint=eastwest;labelBackgroundColor=none;fontColor=#143642;rounded=1;" vertex="1" parent="ddzxB84qZO3PPZxsslgc-8">
          <mxGeometry y="260" width="261" height="26" as="geometry" />
        </mxCell>
        <mxCell id="ddzxB84qZO3PPZxsslgc-19" value="         DSI_ItemType&#xa;" style="text;align=left;verticalAlign=top;spacingLeft=4;spacingRight=4;overflow=hidden;rotatable=0;points=[[0,0.5],[1,0.5]];portConstraint=eastwest;labelBackgroundColor=none;fontColor=#143642;rounded=1;" vertex="1" parent="ddzxB84qZO3PPZxsslgc-8">
          <mxGeometry y="286" width="261" height="26" as="geometry" />
        </mxCell>
        <mxCell id="ddzxB84qZO3PPZxsslgc-20" value="" style="line;html=1;strokeWidth=1;align=left;verticalAlign=middle;spacingTop=-1;spacingLeft=3;spacingRight=3;rotatable=0;labelPosition=right;points=[];portConstraint=eastwest;labelBackgroundColor=none;fillColor=#FAE5C7;strokeColor=#0F8B8D;fontColor=#143642;rounded=1;" vertex="1" parent="ddzxB84qZO3PPZxsslgc-8">
          <mxGeometry y="312" width="261" height="28" as="geometry" />
        </mxCell>
        <mxCell id="ddzxB84qZO3PPZxsslgc-21" value="Dim.DST_DimStockItemsType" style="swimlane;fontStyle=0;align=center;verticalAlign=top;childLayout=stackLayout;horizontal=1;startSize=26;horizontalStack=0;resizeParent=1;resizeLast=0;collapsible=1;marginBottom=0;rounded=1;shadow=0;strokeWidth=1;fillColor=#FAE5C7;strokeColor=#0F8B8D;labelBackgroundColor=none;fontColor=#143642;" vertex="1" parent="WIyWlLk6GJQsqaUBKTNV-1">
          <mxGeometry x="-360" y="230" width="220" height="130" as="geometry">
            <mxRectangle x="550" y="140" width="160" height="26" as="alternateBounds" />
          </mxGeometry>
        </mxCell>
        <mxCell id="ddzxB84qZO3PPZxsslgc-22" value="PK ** DST_StockItemTypeKey" style="text;align=left;verticalAlign=top;spacingLeft=4;spacingRight=4;overflow=hidden;rotatable=0;points=[[0,0.5],[1,0.5]];portConstraint=eastwest;labelBackgroundColor=none;fontColor=#143642;rounded=1;" vertex="1" parent="ddzxB84qZO3PPZxsslgc-21">
          <mxGeometry y="26" width="220" height="26" as="geometry" />
        </mxCell>
        <mxCell id="ddzxB84qZO3PPZxsslgc-23" value="         DST_StockItemTypeId&#xa;" style="text;align=left;verticalAlign=top;spacingLeft=4;spacingRight=4;overflow=hidden;rotatable=0;points=[[0,0.5],[1,0.5]];portConstraint=eastwest;labelBackgroundColor=none;fontColor=#143642;rounded=1;" vertex="1" parent="ddzxB84qZO3PPZxsslgc-21">
          <mxGeometry y="52" width="220" height="26" as="geometry" />
        </mxCell>
        <mxCell id="ddzxB84qZO3PPZxsslgc-24" value="         DST_StockItemTypeName" style="text;align=left;verticalAlign=top;spacingLeft=4;spacingRight=4;overflow=hidden;rotatable=0;points=[[0,0.5],[1,0.5]];portConstraint=eastwest;labelBackgroundColor=none;fontColor=#143642;rounded=1;" vertex="1" parent="ddzxB84qZO3PPZxsslgc-21">
          <mxGeometry y="78" width="220" height="26" as="geometry" />
        </mxCell>
        <mxCell id="ddzxB84qZO3PPZxsslgc-25" value="" style="line;html=1;strokeWidth=1;align=left;verticalAlign=middle;spacingTop=-1;spacingLeft=3;spacingRight=3;rotatable=0;labelPosition=right;points=[];portConstraint=eastwest;labelBackgroundColor=none;fillColor=#FAE5C7;strokeColor=#0F8B8D;fontColor=#143642;rounded=1;" vertex="1" parent="ddzxB84qZO3PPZxsslgc-21">
          <mxGeometry y="104" width="220" height="8" as="geometry" />
        </mxCell>
        <mxCell id="ddzxB84qZO3PPZxsslgc-26" value="Dim.DCP_DimCompany" style="swimlane;fontStyle=0;align=center;verticalAlign=top;childLayout=stackLayout;horizontal=1;startSize=26;horizontalStack=0;resizeParent=1;resizeLast=0;collapsible=1;marginBottom=0;rounded=1;shadow=0;strokeWidth=1;fillColor=#FAE5C7;strokeColor=#0F8B8D;labelBackgroundColor=none;fontColor=#143642;" vertex="1" parent="WIyWlLk6GJQsqaUBKTNV-1">
          <mxGeometry x="-160" y="610" width="191" height="230" as="geometry">
            <mxRectangle x="550" y="140" width="160" height="26" as="alternateBounds" />
          </mxGeometry>
        </mxCell>
        <mxCell id="ddzxB84qZO3PPZxsslgc-27" value="PK ** DCP_CompanyKey&#xa;" style="text;align=left;verticalAlign=top;spacingLeft=4;spacingRight=4;overflow=hidden;rotatable=0;points=[[0,0.5],[1,0.5]];portConstraint=eastwest;labelBackgroundColor=none;fontColor=#143642;rounded=1;" vertex="1" parent="ddzxB84qZO3PPZxsslgc-26">
          <mxGeometry y="26" width="191" height="24" as="geometry" />
        </mxCell>
        <mxCell id="ddzxB84qZO3PPZxsslgc-28" value="        DCP_CompanyId" style="text;align=left;verticalAlign=top;spacingLeft=4;spacingRight=4;overflow=hidden;rotatable=0;points=[[0,0.5],[1,0.5]];portConstraint=eastwest;labelBackgroundColor=none;fontColor=#143642;rounded=1;" vertex="1" parent="ddzxB84qZO3PPZxsslgc-26">
          <mxGeometry y="50" width="191" height="26" as="geometry" />
        </mxCell>
        <mxCell id="ddzxB84qZO3PPZxsslgc-29" value="        DCP_CompanyName" style="text;align=left;verticalAlign=top;spacingLeft=4;spacingRight=4;overflow=hidden;rotatable=0;points=[[0,0.5],[1,0.5]];portConstraint=eastwest;labelBackgroundColor=none;fontColor=#143642;rounded=1;" vertex="1" parent="ddzxB84qZO3PPZxsslgc-26">
          <mxGeometry y="76" width="191" height="26" as="geometry" />
        </mxCell>
        <mxCell id="ddzxB84qZO3PPZxsslgc-30" value="        DCP_ShortName" style="text;align=left;verticalAlign=top;spacingLeft=4;spacingRight=4;overflow=hidden;rotatable=0;points=[[0,0.5],[1,0.5]];portConstraint=eastwest;labelBackgroundColor=none;fontColor=#143642;rounded=1;" vertex="1" parent="ddzxB84qZO3PPZxsslgc-26">
          <mxGeometry y="102" width="191" height="26" as="geometry" />
        </mxCell>
        <mxCell id="ddzxB84qZO3PPZxsslgc-31" value="        DCP_MainFacility" style="text;align=left;verticalAlign=top;spacingLeft=4;spacingRight=4;overflow=hidden;rotatable=0;points=[[0,0.5],[1,0.5]];portConstraint=eastwest;rounded=1;shadow=0;html=0;labelBackgroundColor=none;" vertex="1" parent="ddzxB84qZO3PPZxsslgc-26">
          <mxGeometry y="128" width="191" height="26" as="geometry" />
        </mxCell>
        <mxCell id="ddzxB84qZO3PPZxsslgc-32" value="        DCP_Capital" style="text;align=left;verticalAlign=top;spacingLeft=4;spacingRight=4;overflow=hidden;rotatable=0;points=[[0,0.5],[1,0.5]];portConstraint=eastwest;rounded=1;shadow=0;html=0;labelBackgroundColor=none;" vertex="1" parent="ddzxB84qZO3PPZxsslgc-26">
          <mxGeometry y="154" width="191" height="26" as="geometry" />
        </mxCell>
        <mxCell id="ddzxB84qZO3PPZxsslgc-33" value="        DCP_ContryCode" style="text;align=left;verticalAlign=top;spacingLeft=4;spacingRight=4;overflow=hidden;rotatable=0;points=[[0,0.5],[1,0.5]];portConstraint=eastwest;labelBackgroundColor=none;fontColor=#143642;rounded=1;" vertex="1" parent="ddzxB84qZO3PPZxsslgc-26">
          <mxGeometry y="180" width="191" height="26" as="geometry" />
        </mxCell>
        <mxCell id="ddzxB84qZO3PPZxsslgc-34" value="" style="line;html=1;strokeWidth=1;align=left;verticalAlign=middle;spacingTop=-1;spacingLeft=3;spacingRight=3;rotatable=0;labelPosition=right;points=[];portConstraint=eastwest;labelBackgroundColor=none;fillColor=#FAE5C7;strokeColor=#0F8B8D;fontColor=#143642;rounded=1;" vertex="1" parent="ddzxB84qZO3PPZxsslgc-26">
          <mxGeometry y="206" width="191" height="8" as="geometry" />
        </mxCell>
        <mxCell id="ddzxB84qZO3PPZxsslgc-40" value="Dim.DDM_DimDeliveryMethod" style="swimlane;fontStyle=0;align=center;verticalAlign=top;childLayout=stackLayout;horizontal=1;startSize=26;horizontalStack=0;resizeParent=1;resizeLast=0;collapsible=1;marginBottom=0;rounded=1;shadow=0;strokeWidth=1;fillColor=#FAE5C7;strokeColor=#0F8B8D;labelBackgroundColor=none;fontColor=#143642;" vertex="1" parent="WIyWlLk6GJQsqaUBKTNV-1">
          <mxGeometry x="-190" y="890" width="230" height="130" as="geometry">
            <mxRectangle x="550" y="140" width="160" height="26" as="alternateBounds" />
          </mxGeometry>
        </mxCell>
        <mxCell id="ddzxB84qZO3PPZxsslgc-41" value="PK ** DDM_DeliveryMethodKey" style="text;align=left;verticalAlign=top;spacingLeft=4;spacingRight=4;overflow=hidden;rotatable=0;points=[[0,0.5],[1,0.5]];portConstraint=eastwest;labelBackgroundColor=none;fontColor=#143642;rounded=1;" vertex="1" parent="ddzxB84qZO3PPZxsslgc-40">
          <mxGeometry y="26" width="230" height="24" as="geometry" />
        </mxCell>
        <mxCell id="ddzxB84qZO3PPZxsslgc-42" value="        DDM_DeliveryMethodId" style="text;align=left;verticalAlign=top;spacingLeft=4;spacingRight=4;overflow=hidden;rotatable=0;points=[[0,0.5],[1,0.5]];portConstraint=eastwest;labelBackgroundColor=none;fontColor=#143642;rounded=1;" vertex="1" parent="ddzxB84qZO3PPZxsslgc-40">
          <mxGeometry y="50" width="230" height="26" as="geometry" />
        </mxCell>
        <mxCell id="ddzxB84qZO3PPZxsslgc-43" value="        DDM_DeliveryMethodDescription" style="text;align=left;verticalAlign=top;spacingLeft=4;spacingRight=4;overflow=hidden;rotatable=0;points=[[0,0.5],[1,0.5]];portConstraint=eastwest;labelBackgroundColor=none;fontColor=#143642;rounded=1;" vertex="1" parent="ddzxB84qZO3PPZxsslgc-40">
          <mxGeometry y="76" width="230" height="26" as="geometry" />
        </mxCell>
        <mxCell id="ddzxB84qZO3PPZxsslgc-44" value="" style="line;html=1;strokeWidth=1;align=left;verticalAlign=middle;spacingTop=-1;spacingLeft=3;spacingRight=3;rotatable=0;labelPosition=right;points=[];portConstraint=eastwest;labelBackgroundColor=none;fillColor=#FAE5C7;strokeColor=#0F8B8D;fontColor=#143642;rounded=1;" vertex="1" parent="ddzxB84qZO3PPZxsslgc-40">
          <mxGeometry y="102" width="230" height="8" as="geometry" />
        </mxCell>
        <mxCell id="ddzxB84qZO3PPZxsslgc-45" value="Dim.DSP_DIMSalesPersons" style="swimlane;fontStyle=0;align=center;verticalAlign=top;childLayout=stackLayout;horizontal=1;startSize=26;horizontalStack=0;resizeParent=1;resizeLast=0;collapsible=1;marginBottom=0;rounded=1;shadow=0;strokeWidth=1;fillColor=#FAE5C7;strokeColor=#0F8B8D;labelBackgroundColor=none;fontColor=#143642;" vertex="1" parent="WIyWlLk6GJQsqaUBKTNV-1">
          <mxGeometry x="1710" y="890" width="190" height="160" as="geometry">
            <mxRectangle x="550" y="140" width="160" height="26" as="alternateBounds" />
          </mxGeometry>
        </mxCell>
        <mxCell id="ddzxB84qZO3PPZxsslgc-46" value="PK ** DSP_SalesPersonKey" style="text;align=left;verticalAlign=top;spacingLeft=4;spacingRight=4;overflow=hidden;rotatable=0;points=[[0,0.5],[1,0.5]];portConstraint=eastwest;labelBackgroundColor=none;fontColor=#143642;rounded=1;" vertex="1" parent="ddzxB84qZO3PPZxsslgc-45">
          <mxGeometry y="26" width="190" height="26" as="geometry" />
        </mxCell>
        <mxCell id="ddzxB84qZO3PPZxsslgc-47" value="        DSP_SalesPersonId" style="text;align=left;verticalAlign=top;spacingLeft=4;spacingRight=4;overflow=hidden;rotatable=0;points=[[0,0.5],[1,0.5]];portConstraint=eastwest;labelBackgroundColor=none;fontColor=#143642;rounded=1;" vertex="1" parent="ddzxB84qZO3PPZxsslgc-45">
          <mxGeometry y="52" width="190" height="26" as="geometry" />
        </mxCell>
        <mxCell id="ddzxB84qZO3PPZxsslgc-48" value="        DSP_SalesPersonName" style="text;align=left;verticalAlign=top;spacingLeft=4;spacingRight=4;overflow=hidden;rotatable=0;points=[[0,0.5],[1,0.5]];portConstraint=eastwest;labelBackgroundColor=none;fontColor=#143642;rounded=1;" vertex="1" parent="ddzxB84qZO3PPZxsslgc-45">
          <mxGeometry y="78" width="190" height="26" as="geometry" />
        </mxCell>
        <mxCell id="ddzxB84qZO3PPZxsslgc-49" value="        DSP-SalesPersonLateCalls" style="text;align=left;verticalAlign=top;spacingLeft=4;spacingRight=4;overflow=hidden;rotatable=0;points=[[0,0.5],[1,0.5]];portConstraint=eastwest;rounded=1;shadow=0;html=0;labelBackgroundColor=none;fontColor=#143642;" vertex="1" parent="ddzxB84qZO3PPZxsslgc-45">
          <mxGeometry y="104" width="190" height="26" as="geometry" />
        </mxCell>
        <mxCell id="ddzxB84qZO3PPZxsslgc-50" value="" style="line;html=1;strokeWidth=1;align=left;verticalAlign=middle;spacingTop=-1;spacingLeft=3;spacingRight=3;rotatable=0;labelPosition=right;points=[];portConstraint=eastwest;labelBackgroundColor=none;fillColor=#FAE5C7;strokeColor=#0F8B8D;fontColor=#143642;rounded=1;" vertex="1" parent="ddzxB84qZO3PPZxsslgc-45">
          <mxGeometry y="130" width="190" height="8" as="geometry" />
        </mxCell>
        <mxCell id="ddzxB84qZO3PPZxsslgc-51" value="Dim.DIS_DimInvoiceStatus" style="swimlane;fontStyle=0;align=center;verticalAlign=top;childLayout=stackLayout;horizontal=1;startSize=26;horizontalStack=0;resizeParent=1;resizeLast=0;collapsible=1;marginBottom=0;rounded=1;shadow=0;strokeWidth=1;fillColor=#FAE5C7;strokeColor=#0F8B8D;labelBackgroundColor=none;fontColor=#143642;" vertex="1" parent="WIyWlLk6GJQsqaUBKTNV-1">
          <mxGeometry x="920" y="1350" width="230" height="130" as="geometry">
            <mxRectangle x="550" y="140" width="160" height="26" as="alternateBounds" />
          </mxGeometry>
        </mxCell>
        <mxCell id="ddzxB84qZO3PPZxsslgc-52" value="PK** DIS_InvoiceStatusKey&#xa; " style="text;align=left;verticalAlign=top;spacingLeft=4;spacingRight=4;overflow=hidden;rotatable=0;points=[[0,0.5],[1,0.5]];portConstraint=eastwest;labelBackgroundColor=none;fontColor=#143642;rounded=1;" vertex="1" parent="ddzxB84qZO3PPZxsslgc-51">
          <mxGeometry y="26" width="230" height="24" as="geometry" />
        </mxCell>
        <mxCell id="ddzxB84qZO3PPZxsslgc-53" value="         DIS_InvoiceStatusId" style="text;align=left;verticalAlign=top;spacingLeft=4;spacingRight=4;overflow=hidden;rotatable=0;points=[[0,0.5],[1,0.5]];portConstraint=eastwest;labelBackgroundColor=none;fontColor=#143642;rounded=1;" vertex="1" parent="ddzxB84qZO3PPZxsslgc-51">
          <mxGeometry y="50" width="230" height="26" as="geometry" />
        </mxCell>
        <mxCell id="ddzxB84qZO3PPZxsslgc-54" value="         DIS_InvoiceStatusDescription" style="text;align=left;verticalAlign=top;spacingLeft=4;spacingRight=4;overflow=hidden;rotatable=0;points=[[0,0.5],[1,0.5]];portConstraint=eastwest;labelBackgroundColor=none;fontColor=#143642;rounded=1;" vertex="1" parent="ddzxB84qZO3PPZxsslgc-51">
          <mxGeometry y="76" width="230" height="26" as="geometry" />
        </mxCell>
        <mxCell id="ddzxB84qZO3PPZxsslgc-55" value="" style="line;html=1;strokeWidth=1;align=left;verticalAlign=middle;spacingTop=-1;spacingLeft=3;spacingRight=3;rotatable=0;labelPosition=right;points=[];portConstraint=eastwest;labelBackgroundColor=none;fillColor=#FAE5C7;strokeColor=#0F8B8D;fontColor=#143642;rounded=1;" vertex="1" parent="ddzxB84qZO3PPZxsslgc-51">
          <mxGeometry y="102" width="230" height="8" as="geometry" />
        </mxCell>
        <mxCell id="ddzxB84qZO3PPZxsslgc-56" value="Dim.DIT_DimInvoiceType" style="swimlane;fontStyle=0;align=center;verticalAlign=top;childLayout=stackLayout;horizontal=1;startSize=26;horizontalStack=0;resizeParent=1;resizeLast=0;collapsible=1;marginBottom=0;rounded=1;shadow=0;strokeWidth=1;fillColor=#FAE5C7;strokeColor=#0F8B8D;labelBackgroundColor=none;fontColor=#143642;" vertex="1" parent="WIyWlLk6GJQsqaUBKTNV-1">
          <mxGeometry x="920" y="1510" width="230" height="130" as="geometry">
            <mxRectangle x="550" y="140" width="160" height="26" as="alternateBounds" />
          </mxGeometry>
        </mxCell>
        <mxCell id="ddzxB84qZO3PPZxsslgc-57" value="PK** DIT_InvoiceTypeKey&#xa; " style="text;align=left;verticalAlign=top;spacingLeft=4;spacingRight=4;overflow=hidden;rotatable=0;points=[[0,0.5],[1,0.5]];portConstraint=eastwest;labelBackgroundColor=none;fontColor=#143642;rounded=1;" vertex="1" parent="ddzxB84qZO3PPZxsslgc-56">
          <mxGeometry y="26" width="230" height="24" as="geometry" />
        </mxCell>
        <mxCell id="ddzxB84qZO3PPZxsslgc-58" value="         DIT_InvoiceTypeId" style="text;align=left;verticalAlign=top;spacingLeft=4;spacingRight=4;overflow=hidden;rotatable=0;points=[[0,0.5],[1,0.5]];portConstraint=eastwest;labelBackgroundColor=none;fontColor=#143642;rounded=1;" vertex="1" parent="ddzxB84qZO3PPZxsslgc-56">
          <mxGeometry y="50" width="230" height="26" as="geometry" />
        </mxCell>
        <mxCell id="ddzxB84qZO3PPZxsslgc-59" value="         DIT_InvoiceTypeDescription" style="text;align=left;verticalAlign=top;spacingLeft=4;spacingRight=4;overflow=hidden;rotatable=0;points=[[0,0.5],[1,0.5]];portConstraint=eastwest;labelBackgroundColor=none;fontColor=#143642;rounded=1;" vertex="1" parent="ddzxB84qZO3PPZxsslgc-56">
          <mxGeometry y="76" width="230" height="26" as="geometry" />
        </mxCell>
        <mxCell id="ddzxB84qZO3PPZxsslgc-60" value="" style="line;html=1;strokeWidth=1;align=left;verticalAlign=middle;spacingTop=-1;spacingLeft=3;spacingRight=3;rotatable=0;labelPosition=right;points=[];portConstraint=eastwest;labelBackgroundColor=none;fillColor=#FAE5C7;strokeColor=#0F8B8D;fontColor=#143642;rounded=1;" vertex="1" parent="ddzxB84qZO3PPZxsslgc-56">
          <mxGeometry y="102" width="230" height="8" as="geometry" />
        </mxCell>
        <mxCell id="ddzxB84qZO3PPZxsslgc-61" value="Dim.DFC_DimFacility" style="swimlane;fontStyle=0;align=center;verticalAlign=top;childLayout=stackLayout;horizontal=1;startSize=26;horizontalStack=0;resizeParent=1;resizeLast=0;collapsible=1;marginBottom=0;rounded=1;shadow=0;strokeWidth=1;fillColor=#FAE5C7;strokeColor=#0F8B8D;labelBackgroundColor=none;fontColor=#143642;" vertex="1" parent="WIyWlLk6GJQsqaUBKTNV-1">
          <mxGeometry x="1670" y="460" width="190" height="188" as="geometry">
            <mxRectangle x="550" y="140" width="160" height="26" as="alternateBounds" />
          </mxGeometry>
        </mxCell>
        <mxCell id="ddzxB84qZO3PPZxsslgc-62" value="PK ** DFC_FacilityKey" style="text;align=left;verticalAlign=top;spacingLeft=4;spacingRight=4;overflow=hidden;rotatable=0;points=[[0,0.5],[1,0.5]];portConstraint=eastwest;labelBackgroundColor=none;fontColor=#143642;rounded=1;" vertex="1" parent="ddzxB84qZO3PPZxsslgc-61">
          <mxGeometry y="26" width="190" height="24" as="geometry" />
        </mxCell>
        <mxCell id="ddzxB84qZO3PPZxsslgc-63" value="         DFC_FacilityId" style="text;align=left;verticalAlign=top;spacingLeft=4;spacingRight=4;overflow=hidden;rotatable=0;points=[[0,0.5],[1,0.5]];portConstraint=eastwest;labelBackgroundColor=none;fontColor=#143642;rounded=1;" vertex="1" parent="ddzxB84qZO3PPZxsslgc-61">
          <mxGeometry y="50" width="190" height="26" as="geometry" />
        </mxCell>
        <mxCell id="ddzxB84qZO3PPZxsslgc-64" value="         DFC_FacilityName" style="text;align=left;verticalAlign=top;spacingLeft=4;spacingRight=4;overflow=hidden;rotatable=0;points=[[0,0.5],[1,0.5]];portConstraint=eastwest;labelBackgroundColor=none;fontColor=#143642;rounded=1;" vertex="1" parent="ddzxB84qZO3PPZxsslgc-61">
          <mxGeometry y="76" width="190" height="26" as="geometry" />
        </mxCell>
        <mxCell id="ddzxB84qZO3PPZxsslgc-65" value="         DFC_ShortName" style="text;align=left;verticalAlign=top;spacingLeft=4;spacingRight=4;overflow=hidden;rotatable=0;points=[[0,0.5],[1,0.5]];portConstraint=eastwest;labelBackgroundColor=none;rounded=1;" vertex="1" parent="ddzxB84qZO3PPZxsslgc-61">
          <mxGeometry y="102" width="190" height="26" as="geometry" />
        </mxCell>
        <mxCell id="ddzxB84qZO3PPZxsslgc-66" value="         DFC_CountryCode" style="text;align=left;verticalAlign=top;spacingLeft=4;spacingRight=4;overflow=hidden;rotatable=0;points=[[0,0.5],[1,0.5]];portConstraint=eastwest;labelBackgroundColor=none;rounded=1;" vertex="1" parent="ddzxB84qZO3PPZxsslgc-61">
          <mxGeometry y="128" width="190" height="26" as="geometry" />
        </mxCell>
        <mxCell id="ddzxB84qZO3PPZxsslgc-67" value="         DFC_CountryCode" style="text;align=left;verticalAlign=top;spacingLeft=4;spacingRight=4;overflow=hidden;rotatable=0;points=[[0,0.5],[1,0.5]];portConstraint=eastwest;labelBackgroundColor=none;rounded=1;" vertex="1" parent="ddzxB84qZO3PPZxsslgc-61">
          <mxGeometry y="154" width="190" height="26" as="geometry" />
        </mxCell>
        <mxCell id="ddzxB84qZO3PPZxsslgc-68" value="" style="line;html=1;strokeWidth=1;align=left;verticalAlign=middle;spacingTop=-1;spacingLeft=3;spacingRight=3;rotatable=0;labelPosition=right;points=[];portConstraint=eastwest;labelBackgroundColor=none;fillColor=#FAE5C7;strokeColor=#0F8B8D;fontColor=#143642;rounded=1;" vertex="1" parent="ddzxB84qZO3PPZxsslgc-61">
          <mxGeometry y="180" width="190" height="8" as="geometry" />
        </mxCell>
        <mxCell id="ddzxB84qZO3PPZxsslgc-69" value="Dim.DCS_DimCustomers" style="swimlane;fontStyle=0;align=center;verticalAlign=top;childLayout=stackLayout;horizontal=1;startSize=26;horizontalStack=0;resizeParent=1;resizeLast=0;collapsible=1;marginBottom=0;rounded=1;shadow=0;strokeWidth=1;fillColor=#FAE5C7;strokeColor=#0F8B8D;labelBackgroundColor=none;fontColor=#143642;" vertex="1" parent="WIyWlLk6GJQsqaUBKTNV-1">
          <mxGeometry x="1640" y="-10" width="210" height="270" as="geometry">
            <mxRectangle x="550" y="140" width="160" height="26" as="alternateBounds" />
          </mxGeometry>
        </mxCell>
        <mxCell id="ddzxB84qZO3PPZxsslgc-70" value="PK ** DCS_CustomersKey" style="text;align=left;verticalAlign=top;spacingLeft=4;spacingRight=4;overflow=hidden;rotatable=0;points=[[0,0.5],[1,0.5]];portConstraint=eastwest;labelBackgroundColor=none;fontColor=#143642;rounded=1;" vertex="1" parent="ddzxB84qZO3PPZxsslgc-69">
          <mxGeometry y="26" width="210" height="24" as="geometry" />
        </mxCell>
        <mxCell id="ddzxB84qZO3PPZxsslgc-71" value="         DCS_CustomerId" style="text;align=left;verticalAlign=top;spacingLeft=4;spacingRight=4;overflow=hidden;rotatable=0;points=[[0,0.5],[1,0.5]];portConstraint=eastwest;labelBackgroundColor=none;fontColor=#143642;rounded=1;" vertex="1" parent="ddzxB84qZO3PPZxsslgc-69">
          <mxGeometry y="50" width="210" height="26" as="geometry" />
        </mxCell>
        <mxCell id="ddzxB84qZO3PPZxsslgc-72" value="         DCS_CustomerName" style="text;align=left;verticalAlign=top;spacingLeft=4;spacingRight=4;overflow=hidden;rotatable=0;points=[[0,0.5],[1,0.5]];portConstraint=eastwest;labelBackgroundColor=none;fontColor=#143642;rounded=1;" vertex="1" parent="ddzxB84qZO3PPZxsslgc-69">
          <mxGeometry y="76" width="210" height="26" as="geometry" />
        </mxCell>
        <mxCell id="ddzxB84qZO3PPZxsslgc-73" value="         DCS_CustomerCategory" style="text;align=left;verticalAlign=top;spacingLeft=4;spacingRight=4;overflow=hidden;rotatable=0;points=[[0,0.5],[1,0.5]];portConstraint=eastwest;labelBackgroundColor=none;fontColor=#143642;rounded=1;" vertex="1" parent="ddzxB84qZO3PPZxsslgc-69">
          <mxGeometry y="102" width="210" height="26" as="geometry" />
        </mxCell>
        <mxCell id="ddzxB84qZO3PPZxsslgc-74" value="         DCS_CustomerType" style="text;align=left;verticalAlign=top;spacingLeft=4;spacingRight=4;overflow=hidden;rotatable=0;points=[[0,0.5],[1,0.5]];portConstraint=eastwest;labelBackgroundColor=none;fontColor=#143642;rounded=1;" vertex="1" parent="ddzxB84qZO3PPZxsslgc-69">
          <mxGeometry y="128" width="210" height="26" as="geometry" />
        </mxCell>
        <mxCell id="ddzxB84qZO3PPZxsslgc-75" value="         DCS_Prospect" style="text;align=left;verticalAlign=top;spacingLeft=4;spacingRight=4;overflow=hidden;rotatable=0;points=[[0,0.5],[1,0.5]];portConstraint=eastwest;labelBackgroundColor=none;fontColor=#143642;rounded=1;" vertex="1" parent="ddzxB84qZO3PPZxsslgc-69">
          <mxGeometry y="154" width="210" height="26" as="geometry" />
        </mxCell>
        <mxCell id="ddzxB84qZO3PPZxsslgc-76" value="         DCS_CountryCode" style="text;align=left;verticalAlign=top;spacingLeft=4;spacingRight=4;overflow=hidden;rotatable=0;points=[[0,0.5],[1,0.5]];portConstraint=eastwest;labelBackgroundColor=none;fontColor=#143642;rounded=1;" vertex="1" parent="ddzxB84qZO3PPZxsslgc-69">
          <mxGeometry y="180" width="210" height="26" as="geometry" />
        </mxCell>
        <mxCell id="ddzxB84qZO3PPZxsslgc-77" value="         DCS_City" style="text;align=left;verticalAlign=top;spacingLeft=4;spacingRight=4;overflow=hidden;rotatable=0;points=[[0,0.5],[1,0.5]];portConstraint=eastwest;labelBackgroundColor=none;fontColor=#143642;rounded=1;" vertex="1" parent="ddzxB84qZO3PPZxsslgc-69">
          <mxGeometry y="206" width="210" height="26" as="geometry" />
        </mxCell>
        <mxCell id="ddzxB84qZO3PPZxsslgc-78" value="" style="line;html=1;strokeWidth=1;align=left;verticalAlign=middle;spacingTop=-1;spacingLeft=3;spacingRight=3;rotatable=0;labelPosition=right;points=[];portConstraint=eastwest;labelBackgroundColor=none;fillColor=#FAE5C7;strokeColor=#0F8B8D;fontColor=#143642;rounded=1;" vertex="1" parent="ddzxB84qZO3PPZxsslgc-69">
          <mxGeometry y="232" width="210" height="28" as="geometry" />
        </mxCell>
        <mxCell id="ddzxB84qZO3PPZxsslgc-79" value="Dim.DCC_DimCustomerCategory" style="swimlane;fontStyle=0;align=center;verticalAlign=top;childLayout=stackLayout;horizontal=1;startSize=26;horizontalStack=0;resizeParent=1;resizeLast=0;collapsible=1;marginBottom=0;rounded=1;shadow=0;strokeWidth=1;fillColor=#FAE5C7;strokeColor=#0F8B8D;labelBackgroundColor=none;fontColor=#143642;" vertex="1" parent="WIyWlLk6GJQsqaUBKTNV-1">
          <mxGeometry x="2210" y="-70" width="240" height="160" as="geometry">
            <mxRectangle x="550" y="140" width="160" height="26" as="alternateBounds" />
          </mxGeometry>
        </mxCell>
        <mxCell id="ddzxB84qZO3PPZxsslgc-80" value="PK ** DCC_CustomersCategoryKey" style="text;align=left;verticalAlign=top;spacingLeft=4;spacingRight=4;overflow=hidden;rotatable=0;points=[[0,0.5],[1,0.5]];portConstraint=eastwest;labelBackgroundColor=none;fontColor=#143642;rounded=1;" vertex="1" parent="ddzxB84qZO3PPZxsslgc-79">
          <mxGeometry y="26" width="240" height="24" as="geometry" />
        </mxCell>
        <mxCell id="ddzxB84qZO3PPZxsslgc-81" value="         DCC_CustomerCategoryId" style="text;align=left;verticalAlign=top;spacingLeft=4;spacingRight=4;overflow=hidden;rotatable=0;points=[[0,0.5],[1,0.5]];portConstraint=eastwest;labelBackgroundColor=none;fontColor=#143642;rounded=1;" vertex="1" parent="ddzxB84qZO3PPZxsslgc-79">
          <mxGeometry y="50" width="240" height="26" as="geometry" />
        </mxCell>
        <mxCell id="ddzxB84qZO3PPZxsslgc-82" value="         DCC_CustomerCategoryDescription" style="text;align=left;verticalAlign=top;spacingLeft=4;spacingRight=4;overflow=hidden;rotatable=0;points=[[0,0.5],[1,0.5]];portConstraint=eastwest;labelBackgroundColor=none;fontColor=#143642;rounded=1;" vertex="1" parent="ddzxB84qZO3PPZxsslgc-79">
          <mxGeometry y="76" width="240" height="26" as="geometry" />
        </mxCell>
        <mxCell id="ddzxB84qZO3PPZxsslgc-83" value="         DCC_ShortDescription" style="text;align=left;verticalAlign=top;spacingLeft=4;spacingRight=4;overflow=hidden;rotatable=0;points=[[0,0.5],[1,0.5]];portConstraint=eastwest;labelBackgroundColor=none;fontColor=#143642;rounded=1;" vertex="1" parent="ddzxB84qZO3PPZxsslgc-79">
          <mxGeometry y="102" width="240" height="26" as="geometry" />
        </mxCell>
        <mxCell id="ddzxB84qZO3PPZxsslgc-84" value="" style="line;html=1;strokeWidth=1;align=left;verticalAlign=middle;spacingTop=-1;spacingLeft=3;spacingRight=3;rotatable=0;labelPosition=right;points=[];portConstraint=eastwest;labelBackgroundColor=none;fillColor=#FAE5C7;strokeColor=#0F8B8D;fontColor=#143642;rounded=1;" vertex="1" parent="ddzxB84qZO3PPZxsslgc-79">
          <mxGeometry y="128" width="240" height="8" as="geometry" />
        </mxCell>
        <mxCell id="ddzxB84qZO3PPZxsslgc-85" value="Dim.DCT_DimCustomerType" style="swimlane;fontStyle=0;align=center;verticalAlign=top;childLayout=stackLayout;horizontal=1;startSize=26;horizontalStack=0;resizeParent=1;resizeLast=0;collapsible=1;marginBottom=0;rounded=1;shadow=0;strokeWidth=1;fillColor=#FAE5C7;strokeColor=#0F8B8D;labelBackgroundColor=none;fontColor=#143642;" vertex="1" parent="WIyWlLk6GJQsqaUBKTNV-1">
          <mxGeometry x="2230" y="120" width="210" height="130" as="geometry">
            <mxRectangle x="550" y="140" width="160" height="26" as="alternateBounds" />
          </mxGeometry>
        </mxCell>
        <mxCell id="ddzxB84qZO3PPZxsslgc-86" value="PK ** DCT_CustomersTypeKey" style="text;align=left;verticalAlign=top;spacingLeft=4;spacingRight=4;overflow=hidden;rotatable=0;points=[[0,0.5],[1,0.5]];portConstraint=eastwest;labelBackgroundColor=none;fontColor=#143642;rounded=1;" vertex="1" parent="ddzxB84qZO3PPZxsslgc-85">
          <mxGeometry y="26" width="210" height="24" as="geometry" />
        </mxCell>
        <mxCell id="ddzxB84qZO3PPZxsslgc-87" value="          DCT_CustomerTypeId" style="text;align=left;verticalAlign=top;spacingLeft=4;spacingRight=4;overflow=hidden;rotatable=0;points=[[0,0.5],[1,0.5]];portConstraint=eastwest;labelBackgroundColor=none;fontColor=#143642;rounded=1;" vertex="1" parent="ddzxB84qZO3PPZxsslgc-85">
          <mxGeometry y="50" width="210" height="26" as="geometry" />
        </mxCell>
        <mxCell id="ddzxB84qZO3PPZxsslgc-88" value="          DCT_TypeDescription" style="text;align=left;verticalAlign=top;spacingLeft=4;spacingRight=4;overflow=hidden;rotatable=0;points=[[0,0.5],[1,0.5]];portConstraint=eastwest;labelBackgroundColor=none;fontColor=#143642;rounded=1;" vertex="1" parent="ddzxB84qZO3PPZxsslgc-85">
          <mxGeometry y="76" width="210" height="26" as="geometry" />
        </mxCell>
        <mxCell id="ddzxB84qZO3PPZxsslgc-89" value="" style="line;html=1;strokeWidth=1;align=left;verticalAlign=middle;spacingTop=-1;spacingLeft=3;spacingRight=3;rotatable=0;labelPosition=right;points=[];portConstraint=eastwest;labelBackgroundColor=none;fillColor=#FAE5C7;strokeColor=#0F8B8D;fontColor=#143642;rounded=1;" vertex="1" parent="ddzxB84qZO3PPZxsslgc-85">
          <mxGeometry y="102" width="210" height="8" as="geometry" />
        </mxCell>
        <mxCell id="ddzxB84qZO3PPZxsslgc-90" value="Dim.DOT_DimOrderStatus" style="swimlane;fontStyle=0;align=center;verticalAlign=top;childLayout=stackLayout;horizontal=1;startSize=26;horizontalStack=0;resizeParent=1;resizeLast=0;collapsible=1;marginBottom=0;rounded=1;shadow=0;strokeWidth=1;fillColor=#FAE5C7;strokeColor=#0F8B8D;labelBackgroundColor=none;fontColor=#143642;" vertex="1" parent="WIyWlLk6GJQsqaUBKTNV-1">
          <mxGeometry x="-200" y="1520" width="230" height="130" as="geometry">
            <mxRectangle x="550" y="140" width="160" height="26" as="alternateBounds" />
          </mxGeometry>
        </mxCell>
        <mxCell id="ddzxB84qZO3PPZxsslgc-91" value="PK** DOT_OrderTypeKey&#xa; " style="text;align=left;verticalAlign=top;spacingLeft=4;spacingRight=4;overflow=hidden;rotatable=0;points=[[0,0.5],[1,0.5]];portConstraint=eastwest;labelBackgroundColor=none;fontColor=#143642;rounded=1;" vertex="1" parent="ddzxB84qZO3PPZxsslgc-90">
          <mxGeometry y="26" width="230" height="24" as="geometry" />
        </mxCell>
        <mxCell id="ddzxB84qZO3PPZxsslgc-92" value="         DOT_OrederTypeId" style="text;align=left;verticalAlign=top;spacingLeft=4;spacingRight=4;overflow=hidden;rotatable=0;points=[[0,0.5],[1,0.5]];portConstraint=eastwest;labelBackgroundColor=none;fontColor=#143642;rounded=1;" vertex="1" parent="ddzxB84qZO3PPZxsslgc-90">
          <mxGeometry y="50" width="230" height="26" as="geometry" />
        </mxCell>
        <mxCell id="ddzxB84qZO3PPZxsslgc-93" value="         DOT_OrderTypeDescription" style="text;align=left;verticalAlign=top;spacingLeft=4;spacingRight=4;overflow=hidden;rotatable=0;points=[[0,0.5],[1,0.5]];portConstraint=eastwest;labelBackgroundColor=none;fontColor=#143642;rounded=1;" vertex="1" parent="ddzxB84qZO3PPZxsslgc-90">
          <mxGeometry y="76" width="230" height="26" as="geometry" />
        </mxCell>
        <mxCell id="ddzxB84qZO3PPZxsslgc-94" value="" style="line;html=1;strokeWidth=1;align=left;verticalAlign=middle;spacingTop=-1;spacingLeft=3;spacingRight=3;rotatable=0;labelPosition=right;points=[];portConstraint=eastwest;labelBackgroundColor=none;fillColor=#FAE5C7;strokeColor=#0F8B8D;fontColor=#143642;rounded=1;" vertex="1" parent="ddzxB84qZO3PPZxsslgc-90">
          <mxGeometry y="102" width="230" height="8" as="geometry" />
        </mxCell>
        <mxCell id="ddzxB84qZO3PPZxsslgc-95" value="Dim.DOT_DimOrderCategory" style="swimlane;fontStyle=0;align=center;verticalAlign=top;childLayout=stackLayout;horizontal=1;startSize=26;horizontalStack=0;resizeParent=1;resizeLast=0;collapsible=1;marginBottom=0;rounded=1;shadow=0;strokeWidth=1;fillColor=#FAE5C7;strokeColor=#0F8B8D;labelBackgroundColor=none;fontColor=#143642;" vertex="1" parent="WIyWlLk6GJQsqaUBKTNV-1">
          <mxGeometry x="-200" y="1360" width="230" height="130" as="geometry">
            <mxRectangle x="550" y="140" width="160" height="26" as="alternateBounds" />
          </mxGeometry>
        </mxCell>
        <mxCell id="ddzxB84qZO3PPZxsslgc-96" value="PK** DOT_OrderTypeKey&#xa; " style="text;align=left;verticalAlign=top;spacingLeft=4;spacingRight=4;overflow=hidden;rotatable=0;points=[[0,0.5],[1,0.5]];portConstraint=eastwest;labelBackgroundColor=none;fontColor=#143642;rounded=1;" vertex="1" parent="ddzxB84qZO3PPZxsslgc-95">
          <mxGeometry y="26" width="230" height="24" as="geometry" />
        </mxCell>
        <mxCell id="ddzxB84qZO3PPZxsslgc-97" value="         DOT_OrederTypeId" style="text;align=left;verticalAlign=top;spacingLeft=4;spacingRight=4;overflow=hidden;rotatable=0;points=[[0,0.5],[1,0.5]];portConstraint=eastwest;labelBackgroundColor=none;fontColor=#143642;rounded=1;" vertex="1" parent="ddzxB84qZO3PPZxsslgc-95">
          <mxGeometry y="50" width="230" height="26" as="geometry" />
        </mxCell>
        <mxCell id="ddzxB84qZO3PPZxsslgc-98" value="         DOT_OrderTypeDescription" style="text;align=left;verticalAlign=top;spacingLeft=4;spacingRight=4;overflow=hidden;rotatable=0;points=[[0,0.5],[1,0.5]];portConstraint=eastwest;labelBackgroundColor=none;fontColor=#143642;rounded=1;" vertex="1" parent="ddzxB84qZO3PPZxsslgc-95">
          <mxGeometry y="76" width="230" height="26" as="geometry" />
        </mxCell>
        <mxCell id="ddzxB84qZO3PPZxsslgc-99" value="" style="line;html=1;strokeWidth=1;align=left;verticalAlign=middle;spacingTop=-1;spacingLeft=3;spacingRight=3;rotatable=0;labelPosition=right;points=[];portConstraint=eastwest;labelBackgroundColor=none;fillColor=#FAE5C7;strokeColor=#0F8B8D;fontColor=#143642;rounded=1;" vertex="1" parent="ddzxB84qZO3PPZxsslgc-95">
          <mxGeometry y="102" width="230" height="8" as="geometry" />
        </mxCell>
        <mxCell id="ddzxB84qZO3PPZxsslgc-102" value="Fact.FRT_FactReturn" style="swimlane;fontStyle=0;align=center;verticalAlign=top;childLayout=stackLayout;horizontal=1;startSize=26;horizontalStack=0;resizeParent=1;resizeLast=0;collapsible=1;marginBottom=0;rounded=1;shadow=0;strokeWidth=1;fillColor=#fff2cc;strokeColor=#d6b656;gradientColor=#ffd966;" vertex="1" parent="WIyWlLk6GJQsqaUBKTNV-1">
          <mxGeometry x="1299" y="240" width="211" height="526" as="geometry">
            <mxRectangle x="550" y="140" width="160" height="26" as="alternateBounds" />
          </mxGeometry>
        </mxCell>
        <mxCell id="ddzxB84qZO3PPZxsslgc-103" value="PK ** FRT_Id" style="text;align=left;verticalAlign=top;spacingLeft=4;spacingRight=4;overflow=hidden;rotatable=0;points=[[0,0.5],[1,0.5]];portConstraint=eastwest;" vertex="1" parent="ddzxB84qZO3PPZxsslgc-102">
          <mxGeometry y="26" width="211" height="26" as="geometry" />
        </mxCell>
        <mxCell id="ddzxB84qZO3PPZxsslgc-104" value="         FRT_ReturnId" style="text;align=left;verticalAlign=top;spacingLeft=4;spacingRight=4;overflow=hidden;rotatable=0;points=[[0,0.5],[1,0.5]];portConstraint=eastwest;rounded=0;shadow=0;html=0;" vertex="1" parent="ddzxB84qZO3PPZxsslgc-102">
          <mxGeometry y="52" width="211" height="26" as="geometry" />
        </mxCell>
        <mxCell id="ddzxB84qZO3PPZxsslgc-105" value="         FRT_ReturnLine" style="text;align=left;verticalAlign=top;spacingLeft=4;spacingRight=4;overflow=hidden;rotatable=0;points=[[0,0.5],[1,0.5]];portConstraint=eastwest;rounded=0;shadow=0;html=0;" vertex="1" parent="ddzxB84qZO3PPZxsslgc-102">
          <mxGeometry y="78" width="211" height="26" as="geometry" />
        </mxCell>
        <mxCell id="ddzxB84qZO3PPZxsslgc-106" value="         FRT_QtyDelivred" style="text;align=left;verticalAlign=top;spacingLeft=4;spacingRight=4;overflow=hidden;rotatable=0;points=[[0,0.5],[1,0.5]];portConstraint=eastwest;rounded=0;shadow=0;html=0;" vertex="1" parent="ddzxB84qZO3PPZxsslgc-102">
          <mxGeometry y="104" width="211" height="26" as="geometry" />
        </mxCell>
        <mxCell id="ddzxB84qZO3PPZxsslgc-107" value="         FRT_QtyReturn" style="text;align=left;verticalAlign=top;spacingLeft=4;spacingRight=4;overflow=hidden;rotatable=0;points=[[0,0.5],[1,0.5]];portConstraint=eastwest;rounded=0;shadow=0;html=0;" vertex="1" parent="ddzxB84qZO3PPZxsslgc-102">
          <mxGeometry y="130" width="211" height="26" as="geometry" />
        </mxCell>
        <mxCell id="ddzxB84qZO3PPZxsslgc-108" value="         FRT_NetPriceTTC" style="text;align=left;verticalAlign=top;spacingLeft=4;spacingRight=4;overflow=hidden;rotatable=0;points=[[0,0.5],[1,0.5]];portConstraint=eastwest;rounded=0;shadow=0;html=0;" vertex="1" parent="ddzxB84qZO3PPZxsslgc-102">
          <mxGeometry y="156" width="211" height="26" as="geometry" />
        </mxCell>
        <mxCell id="ddzxB84qZO3PPZxsslgc-109" value="         FRT_NetPriceHT" style="text;align=left;verticalAlign=top;spacingLeft=4;spacingRight=4;overflow=hidden;rotatable=0;points=[[0,0.5],[1,0.5]];portConstraint=eastwest;rounded=0;shadow=0;html=0;" vertex="1" parent="ddzxB84qZO3PPZxsslgc-102">
          <mxGeometry y="182" width="211" height="26" as="geometry" />
        </mxCell>
        <mxCell id="ddzxB84qZO3PPZxsslgc-110" value="         FRT_NetPrice" style="text;align=left;verticalAlign=top;spacingLeft=4;spacingRight=4;overflow=hidden;rotatable=0;points=[[0,0.5],[1,0.5]];portConstraint=eastwest;rounded=0;shadow=0;html=0;" vertex="1" parent="ddzxB84qZO3PPZxsslgc-102">
          <mxGeometry y="208" width="211" height="26" as="geometry" />
        </mxCell>
        <mxCell id="ddzxB84qZO3PPZxsslgc-112" value="         FRT_ReturnDateKey" style="text;align=left;verticalAlign=top;spacingLeft=4;spacingRight=4;overflow=hidden;rotatable=0;points=[[0,0.5],[1,0.5]];portConstraint=eastwest;rounded=0;shadow=0;html=0;" vertex="1" parent="ddzxB84qZO3PPZxsslgc-102">
          <mxGeometry y="234" width="211" height="26" as="geometry" />
        </mxCell>
        <mxCell id="ddzxB84qZO3PPZxsslgc-118" value="         FRT_DeliveryCountyKey" style="text;align=left;verticalAlign=top;spacingLeft=4;spacingRight=4;overflow=hidden;rotatable=0;points=[[0,0.5],[1,0.5]];portConstraint=eastwest;rounded=0;shadow=0;html=0;" vertex="1" parent="ddzxB84qZO3PPZxsslgc-102">
          <mxGeometry y="260" width="211" height="26" as="geometry" />
        </mxCell>
        <mxCell id="ddzxB84qZO3PPZxsslgc-117" value="         FRT_CustomerKey" style="text;align=left;verticalAlign=top;spacingLeft=4;spacingRight=4;overflow=hidden;rotatable=0;points=[[0,0.5],[1,0.5]];portConstraint=eastwest;rounded=0;shadow=0;html=0;" vertex="1" parent="ddzxB84qZO3PPZxsslgc-102">
          <mxGeometry y="286" width="211" height="26" as="geometry" />
        </mxCell>
        <mxCell id="ddzxB84qZO3PPZxsslgc-114" value="         FRT_ReceivingFacilityKey" style="text;align=left;verticalAlign=top;spacingLeft=4;spacingRight=4;overflow=hidden;rotatable=0;points=[[0,0.5],[1,0.5]];portConstraint=eastwest;rounded=0;shadow=0;html=0;" vertex="1" parent="ddzxB84qZO3PPZxsslgc-102">
          <mxGeometry y="312" width="211" height="26" as="geometry" />
        </mxCell>
        <mxCell id="ddzxB84qZO3PPZxsslgc-115" value="         FRT_SaleFacilityKey" style="text;align=left;verticalAlign=top;spacingLeft=4;spacingRight=4;overflow=hidden;rotatable=0;points=[[0,0.5],[1,0.5]];portConstraint=eastwest;rounded=0;shadow=0;html=0;" vertex="1" parent="ddzxB84qZO3PPZxsslgc-102">
          <mxGeometry y="338" width="211" height="26" as="geometry" />
        </mxCell>
        <mxCell id="ddzxB84qZO3PPZxsslgc-116" value="         FRT_ShippingFacilityKey" style="text;align=left;verticalAlign=top;spacingLeft=4;spacingRight=4;overflow=hidden;rotatable=0;points=[[0,0.5],[1,0.5]];portConstraint=eastwest;rounded=0;shadow=0;html=0;" vertex="1" parent="ddzxB84qZO3PPZxsslgc-102">
          <mxGeometry y="364" width="211" height="26" as="geometry" />
        </mxCell>
        <mxCell id="ddzxB84qZO3PPZxsslgc-119" value="         FRT_DeliveryMethodKeyKey" style="text;align=left;verticalAlign=top;spacingLeft=4;spacingRight=4;overflow=hidden;rotatable=0;points=[[0,0.5],[1,0.5]];portConstraint=eastwest;rounded=0;shadow=0;html=0;" vertex="1" parent="ddzxB84qZO3PPZxsslgc-102">
          <mxGeometry y="390" width="211" height="26" as="geometry" />
        </mxCell>
        <mxCell id="ddzxB84qZO3PPZxsslgc-113" value="         FRT_Company" style="text;align=left;verticalAlign=top;spacingLeft=4;spacingRight=4;overflow=hidden;rotatable=0;points=[[0,0.5],[1,0.5]];portConstraint=eastwest;rounded=0;shadow=0;html=0;" vertex="1" parent="ddzxB84qZO3PPZxsslgc-102">
          <mxGeometry y="416" width="211" height="26" as="geometry" />
        </mxCell>
        <mxCell id="ddzxB84qZO3PPZxsslgc-111" value="         FRT_ItemKey" style="text;align=left;verticalAlign=top;spacingLeft=4;spacingRight=4;overflow=hidden;rotatable=0;points=[[0,0.5],[1,0.5]];portConstraint=eastwest;rounded=0;shadow=0;html=0;" vertex="1" parent="ddzxB84qZO3PPZxsslgc-102">
          <mxGeometry y="442" width="211" height="26" as="geometry" />
        </mxCell>
        <mxCell id="ddzxB84qZO3PPZxsslgc-120" value="" style="line;html=1;strokeWidth=1;align=left;verticalAlign=middle;spacingTop=-1;spacingLeft=3;spacingRight=3;rotatable=0;labelPosition=right;points=[];portConstraint=eastwest;" vertex="1" parent="ddzxB84qZO3PPZxsslgc-102">
          <mxGeometry y="468" width="211" height="58" as="geometry" />
        </mxCell>
        <mxCell id="ddzxB84qZO3PPZxsslgc-121" style="edgeStyle=orthogonalEdgeStyle;rounded=0;orthogonalLoop=1;jettySize=auto;html=1;" edge="1" parent="WIyWlLk6GJQsqaUBKTNV-1" source="yMNnYsmY4ad9jijK5Zf2-58" target="ddzxB84qZO3PPZxsslgc-1">
          <mxGeometry relative="1" as="geometry">
            <Array as="points">
              <mxPoint x="520" y="511" />
              <mxPoint x="520" y="220" />
              <mxPoint x="290" y="220" />
              <mxPoint x="290" y="-31" />
            </Array>
          </mxGeometry>
        </mxCell>
        <mxCell id="ddzxB84qZO3PPZxsslgc-122" style="edgeStyle=orthogonalEdgeStyle;rounded=0;orthogonalLoop=1;jettySize=auto;html=1;" edge="1" parent="WIyWlLk6GJQsqaUBKTNV-1" source="yMNnYsmY4ad9jijK5Zf2-110" target="ddzxB84qZO3PPZxsslgc-1">
          <mxGeometry relative="1" as="geometry">
            <Array as="points">
              <mxPoint x="546" y="461" />
              <mxPoint x="546" y="-20" />
            </Array>
          </mxGeometry>
        </mxCell>
        <mxCell id="ddzxB84qZO3PPZxsslgc-123" style="edgeStyle=orthogonalEdgeStyle;rounded=0;orthogonalLoop=1;jettySize=auto;html=1;" edge="1" parent="WIyWlLk6GJQsqaUBKTNV-1" source="yMNnYsmY4ad9jijK5Zf2-174" target="ddzxB84qZO3PPZxsslgc-1">
          <mxGeometry relative="1" as="geometry">
            <Array as="points">
              <mxPoint x="920" y="539" />
              <mxPoint x="920" y="220" />
              <mxPoint x="560" y="220" />
              <mxPoint x="560" y="-31" />
            </Array>
          </mxGeometry>
        </mxCell>
        <mxCell id="ddzxB84qZO3PPZxsslgc-124" style="edgeStyle=orthogonalEdgeStyle;rounded=0;orthogonalLoop=1;jettySize=auto;html=1;" edge="1" parent="WIyWlLk6GJQsqaUBKTNV-1" source="ddzxB84qZO3PPZxsslgc-112" target="ddzxB84qZO3PPZxsslgc-1">
          <mxGeometry relative="1" as="geometry">
            <Array as="points">
              <mxPoint x="1240" y="487" />
              <mxPoint x="1240" y="200" />
              <mxPoint x="600" y="200" />
              <mxPoint x="600" y="-40" />
            </Array>
          </mxGeometry>
        </mxCell>
        <mxCell id="ddzxB84qZO3PPZxsslgc-125" style="edgeStyle=orthogonalEdgeStyle;rounded=0;orthogonalLoop=1;jettySize=auto;html=1;" edge="1" parent="WIyWlLk6GJQsqaUBKTNV-1" source="ddzxB84qZO3PPZxsslgc-19" target="ddzxB84qZO3PPZxsslgc-22">
          <mxGeometry relative="1" as="geometry" />
        </mxCell>
        <mxCell id="ddzxB84qZO3PPZxsslgc-126" style="edgeStyle=orthogonalEdgeStyle;rounded=0;orthogonalLoop=1;jettySize=auto;html=1;" edge="1" parent="WIyWlLk6GJQsqaUBKTNV-1" source="yMNnYsmY4ad9jijK5Zf2-88" target="ddzxB84qZO3PPZxsslgc-9">
          <mxGeometry relative="1" as="geometry" />
        </mxCell>
        <mxCell id="ddzxB84qZO3PPZxsslgc-127" style="edgeStyle=orthogonalEdgeStyle;rounded=0;orthogonalLoop=1;jettySize=auto;html=1;" edge="1" parent="WIyWlLk6GJQsqaUBKTNV-1" source="yMNnYsmY4ad9jijK5Zf2-139">
          <mxGeometry relative="1" as="geometry">
            <mxPoint x="160" y="280" as="targetPoint" />
            <Array as="points">
              <mxPoint x="590" y="851" />
              <mxPoint x="590" y="1090" />
              <mxPoint x="240" y="1090" />
              <mxPoint x="240" y="280" />
              <mxPoint x="161" y="280" />
            </Array>
          </mxGeometry>
        </mxCell>
        <mxCell id="ddzxB84qZO3PPZxsslgc-129" style="edgeStyle=orthogonalEdgeStyle;rounded=0;orthogonalLoop=1;jettySize=auto;html=1;" edge="1" parent="WIyWlLk6GJQsqaUBKTNV-1" source="yMNnYsmY4ad9jijK5Zf2-162">
          <mxGeometry relative="1" as="geometry">
            <mxPoint x="160" y="290" as="targetPoint" />
            <Array as="points">
              <mxPoint x="920" y="877" />
              <mxPoint x="920" y="1110" />
              <mxPoint x="200" y="1110" />
              <mxPoint x="200" y="290" />
            </Array>
          </mxGeometry>
        </mxCell>
        <mxCell id="ddzxB84qZO3PPZxsslgc-131" style="edgeStyle=orthogonalEdgeStyle;rounded=0;orthogonalLoop=1;jettySize=auto;html=1;entryX=0.982;entryY=0.11;entryDx=0;entryDy=0;entryPerimeter=0;" edge="1" parent="WIyWlLk6GJQsqaUBKTNV-1" source="ddzxB84qZO3PPZxsslgc-111" target="ddzxB84qZO3PPZxsslgc-11">
          <mxGeometry relative="1" as="geometry">
            <mxPoint x="1190" y="1170" as="targetPoint" />
            <Array as="points">
              <mxPoint x="1240" y="695" />
              <mxPoint x="1240" y="1150" />
              <mxPoint x="180" y="1150" />
              <mxPoint x="180" y="311" />
            </Array>
          </mxGeometry>
        </mxCell>
        <mxCell id="ddzxB84qZO3PPZxsslgc-133" style="edgeStyle=orthogonalEdgeStyle;rounded=0;orthogonalLoop=1;jettySize=auto;html=1;entryX=1;entryY=0.5;entryDx=0;entryDy=0;" edge="1" parent="WIyWlLk6GJQsqaUBKTNV-1" source="yMNnYsmY4ad9jijK5Zf2-122" target="ddzxB84qZO3PPZxsslgc-28">
          <mxGeometry relative="1" as="geometry">
            <Array as="points">
              <mxPoint x="560" y="825" />
              <mxPoint x="560" y="1180" />
              <mxPoint x="160" y="1180" />
              <mxPoint x="160" y="673" />
            </Array>
          </mxGeometry>
        </mxCell>
        <mxCell id="ddzxB84qZO3PPZxsslgc-134" style="edgeStyle=orthogonalEdgeStyle;rounded=0;orthogonalLoop=1;jettySize=auto;html=1;entryX=1;entryY=0.5;entryDx=0;entryDy=0;" edge="1" parent="WIyWlLk6GJQsqaUBKTNV-1" source="yMNnYsmY4ad9jijK5Zf2-181" target="ddzxB84qZO3PPZxsslgc-29">
          <mxGeometry relative="1" as="geometry">
            <Array as="points">
              <mxPoint x="880" y="851" />
              <mxPoint x="880" y="1210" />
              <mxPoint x="130" y="1210" />
              <mxPoint x="130" y="699" />
            </Array>
          </mxGeometry>
        </mxCell>
        <mxCell id="ddzxB84qZO3PPZxsslgc-135" style="edgeStyle=orthogonalEdgeStyle;rounded=0;orthogonalLoop=1;jettySize=auto;html=1;entryX=1;entryY=0.5;entryDx=0;entryDy=0;" edge="1" parent="WIyWlLk6GJQsqaUBKTNV-1" source="ddzxB84qZO3PPZxsslgc-113" target="ddzxB84qZO3PPZxsslgc-30">
          <mxGeometry relative="1" as="geometry">
            <Array as="points">
              <mxPoint x="1210" y="669" />
              <mxPoint x="1210" y="1240" />
              <mxPoint x="100" y="1240" />
              <mxPoint x="100" y="725" />
            </Array>
          </mxGeometry>
        </mxCell>
        <mxCell id="ddzxB84qZO3PPZxsslgc-35" value="Dim.DCO_DimCountry" style="swimlane;fontStyle=0;align=center;verticalAlign=top;childLayout=stackLayout;horizontal=1;startSize=26;horizontalStack=0;resizeParent=1;resizeLast=0;collapsible=1;marginBottom=0;rounded=1;shadow=0;strokeWidth=1;fillColor=#FAE5C7;strokeColor=#0F8B8D;labelBackgroundColor=none;fontColor=#143642;" vertex="1" parent="WIyWlLk6GJQsqaUBKTNV-1">
          <mxGeometry x="670" y="-20" width="210" height="130" as="geometry">
            <mxRectangle x="550" y="140" width="160" height="26" as="alternateBounds" />
          </mxGeometry>
        </mxCell>
        <mxCell id="ddzxB84qZO3PPZxsslgc-36" value="PK** DCO_CountryKey&#xa; " style="text;align=left;verticalAlign=top;spacingLeft=4;spacingRight=4;overflow=hidden;rotatable=0;points=[[0,0.5],[1,0.5]];portConstraint=eastwest;labelBackgroundColor=none;fontColor=#143642;rounded=1;" vertex="1" parent="ddzxB84qZO3PPZxsslgc-35">
          <mxGeometry y="26" width="210" height="24" as="geometry" />
        </mxCell>
        <mxCell id="ddzxB84qZO3PPZxsslgc-37" value="         DCO_CountryId" style="text;align=left;verticalAlign=top;spacingLeft=4;spacingRight=4;overflow=hidden;rotatable=0;points=[[0,0.5],[1,0.5]];portConstraint=eastwest;labelBackgroundColor=none;fontColor=#143642;rounded=1;" vertex="1" parent="ddzxB84qZO3PPZxsslgc-35">
          <mxGeometry y="50" width="210" height="26" as="geometry" />
        </mxCell>
        <mxCell id="ddzxB84qZO3PPZxsslgc-38" value="         DCO_CountryName" style="text;align=left;verticalAlign=top;spacingLeft=4;spacingRight=4;overflow=hidden;rotatable=0;points=[[0,0.5],[1,0.5]];portConstraint=eastwest;labelBackgroundColor=none;fontColor=#143642;rounded=1;" vertex="1" parent="ddzxB84qZO3PPZxsslgc-35">
          <mxGeometry y="76" width="210" height="26" as="geometry" />
        </mxCell>
        <mxCell id="ddzxB84qZO3PPZxsslgc-39" value="" style="line;html=1;strokeWidth=1;align=left;verticalAlign=middle;spacingTop=-1;spacingLeft=3;spacingRight=3;rotatable=0;labelPosition=right;points=[];portConstraint=eastwest;labelBackgroundColor=none;fillColor=#FAE5C7;strokeColor=#0F8B8D;fontColor=#143642;rounded=1;" vertex="1" parent="ddzxB84qZO3PPZxsslgc-35">
          <mxGeometry y="102" width="210" height="8" as="geometry" />
        </mxCell>
        <mxCell id="ddzxB84qZO3PPZxsslgc-137" style="edgeStyle=orthogonalEdgeStyle;rounded=0;orthogonalLoop=1;jettySize=auto;html=1;entryX=0;entryY=0.5;entryDx=0;entryDy=0;" edge="1" parent="WIyWlLk6GJQsqaUBKTNV-1" source="bi2sYFUUaKAIFgb6Iuu--4" target="ddzxB84qZO3PPZxsslgc-36">
          <mxGeometry relative="1" as="geometry" />
        </mxCell>
        <mxCell id="ddzxB84qZO3PPZxsslgc-138" style="edgeStyle=orthogonalEdgeStyle;rounded=0;orthogonalLoop=1;jettySize=auto;html=1;" edge="1" parent="WIyWlLk6GJQsqaUBKTNV-1" source="yMNnYsmY4ad9jijK5Zf2-107" target="ddzxB84qZO3PPZxsslgc-37">
          <mxGeometry relative="1" as="geometry">
            <Array as="points">
              <mxPoint x="840" y="487" />
              <mxPoint x="840" y="170" />
              <mxPoint x="650" y="170" />
              <mxPoint x="650" y="43" />
            </Array>
          </mxGeometry>
        </mxCell>
        <mxCell id="ddzxB84qZO3PPZxsslgc-139" style="edgeStyle=orthogonalEdgeStyle;rounded=0;orthogonalLoop=1;jettySize=auto;html=1;" edge="1" parent="WIyWlLk6GJQsqaUBKTNV-1" source="yMNnYsmY4ad9jijK5Zf2-182" target="ddzxB84qZO3PPZxsslgc-37">
          <mxGeometry relative="1" as="geometry" />
        </mxCell>
        <mxCell id="ddzxB84qZO3PPZxsslgc-141" style="edgeStyle=orthogonalEdgeStyle;rounded=0;orthogonalLoop=1;jettySize=auto;html=1;" edge="1" parent="WIyWlLk6GJQsqaUBKTNV-1" source="yMNnYsmY4ad9jijK5Zf2-76" target="ddzxB84qZO3PPZxsslgc-27">
          <mxGeometry relative="1" as="geometry" />
        </mxCell>
        <mxCell id="ddzxB84qZO3PPZxsslgc-142" style="edgeStyle=orthogonalEdgeStyle;rounded=0;orthogonalLoop=1;jettySize=auto;html=1;" edge="1" parent="WIyWlLk6GJQsqaUBKTNV-1" source="bi2sYFUUaKAIFgb6Iuu--5" target="ddzxB84qZO3PPZxsslgc-2">
          <mxGeometry relative="1" as="geometry">
            <Array as="points">
              <mxPoint x="530" y="537" />
              <mxPoint x="530" y="210" />
              <mxPoint x="260" y="210" />
              <mxPoint x="260" y="-5" />
            </Array>
          </mxGeometry>
        </mxCell>
        <mxCell id="ddzxB84qZO3PPZxsslgc-144" style="edgeStyle=orthogonalEdgeStyle;rounded=0;orthogonalLoop=1;jettySize=auto;html=1;" edge="1" parent="WIyWlLk6GJQsqaUBKTNV-1" source="ddzxB84qZO3PPZxsslgc-143" target="ddzxB84qZO3PPZxsslgc-41">
          <mxGeometry relative="1" as="geometry">
            <Array as="points">
              <mxPoint x="250" y="641" />
              <mxPoint x="250" y="928" />
            </Array>
          </mxGeometry>
        </mxCell>
        <mxCell id="ddzxB84qZO3PPZxsslgc-145" style="edgeStyle=orthogonalEdgeStyle;rounded=0;orthogonalLoop=1;jettySize=auto;html=1;entryX=1;entryY=0.5;entryDx=0;entryDy=0;" edge="1" parent="WIyWlLk6GJQsqaUBKTNV-1" source="yMNnYsmY4ad9jijK5Zf2-127" target="ddzxB84qZO3PPZxsslgc-42">
          <mxGeometry relative="1" as="geometry">
            <Array as="points">
              <mxPoint x="540" y="799" />
              <mxPoint x="540" y="1260" />
              <mxPoint x="80" y="1260" />
              <mxPoint x="80" y="953" />
            </Array>
          </mxGeometry>
        </mxCell>
        <mxCell id="ddzxB84qZO3PPZxsslgc-146" style="edgeStyle=orthogonalEdgeStyle;rounded=0;orthogonalLoop=1;jettySize=auto;html=1;" edge="1" parent="WIyWlLk6GJQsqaUBKTNV-1" source="em6dSbTbty4cNZg0iihS-1" target="ddzxB84qZO3PPZxsslgc-43">
          <mxGeometry relative="1" as="geometry">
            <Array as="points">
              <mxPoint x="870" y="825" />
              <mxPoint x="870" y="1280" />
              <mxPoint x="60" y="1280" />
              <mxPoint x="60" y="979" />
            </Array>
          </mxGeometry>
        </mxCell>
        <mxCell id="ddzxB84qZO3PPZxsslgc-147" style="edgeStyle=orthogonalEdgeStyle;rounded=0;orthogonalLoop=1;jettySize=auto;html=1;" edge="1" parent="WIyWlLk6GJQsqaUBKTNV-1" source="ddzxB84qZO3PPZxsslgc-119" target="ddzxB84qZO3PPZxsslgc-43">
          <mxGeometry relative="1" as="geometry">
            <Array as="points">
              <mxPoint x="1190" y="643" />
              <mxPoint x="1190" y="1300" />
              <mxPoint x="-210" y="1300" />
              <mxPoint x="-210" y="979" />
            </Array>
          </mxGeometry>
        </mxCell>
        <mxCell id="ddzxB84qZO3PPZxsslgc-148" style="edgeStyle=orthogonalEdgeStyle;rounded=0;orthogonalLoop=1;jettySize=auto;html=1;" edge="1" parent="WIyWlLk6GJQsqaUBKTNV-1" source="ddzxB84qZO3PPZxsslgc-118" target="ddzxB84qZO3PPZxsslgc-36">
          <mxGeometry relative="1" as="geometry">
            <Array as="points">
              <mxPoint x="1220" y="513" />
              <mxPoint x="1220" y="18" />
            </Array>
          </mxGeometry>
        </mxCell>
        <mxCell id="ddzxB84qZO3PPZxsslgc-149" style="edgeStyle=orthogonalEdgeStyle;rounded=0;orthogonalLoop=1;jettySize=auto;html=1;entryX=0;entryY=0.5;entryDx=0;entryDy=0;" edge="1" parent="WIyWlLk6GJQsqaUBKTNV-1" source="ddzxB84qZO3PPZxsslgc-117" target="ddzxB84qZO3PPZxsslgc-70">
          <mxGeometry relative="1" as="geometry" />
        </mxCell>
        <mxCell id="ddzxB84qZO3PPZxsslgc-150" style="edgeStyle=orthogonalEdgeStyle;rounded=0;orthogonalLoop=1;jettySize=auto;html=1;" edge="1" parent="WIyWlLk6GJQsqaUBKTNV-1" source="ddzxB84qZO3PPZxsslgc-114" target="ddzxB84qZO3PPZxsslgc-62">
          <mxGeometry relative="1" as="geometry" />
        </mxCell>
        <mxCell id="ddzxB84qZO3PPZxsslgc-152" style="edgeStyle=orthogonalEdgeStyle;rounded=0;orthogonalLoop=1;jettySize=auto;html=1;" edge="1" parent="WIyWlLk6GJQsqaUBKTNV-1" source="ddzxB84qZO3PPZxsslgc-116" target="ddzxB84qZO3PPZxsslgc-63">
          <mxGeometry relative="1" as="geometry">
            <Array as="points">
              <mxPoint x="1610" y="617" />
              <mxPoint x="1610" y="523" />
            </Array>
          </mxGeometry>
        </mxCell>
        <mxCell id="ddzxB84qZO3PPZxsslgc-153" style="edgeStyle=orthogonalEdgeStyle;rounded=0;orthogonalLoop=1;jettySize=auto;html=1;" edge="1" parent="WIyWlLk6GJQsqaUBKTNV-1" source="ddzxB84qZO3PPZxsslgc-115" target="ddzxB84qZO3PPZxsslgc-62">
          <mxGeometry relative="1" as="geometry">
            <Array as="points">
              <mxPoint x="1590" y="591" />
              <mxPoint x="1590" y="510" />
            </Array>
          </mxGeometry>
        </mxCell>
        <mxCell id="ddzxB84qZO3PPZxsslgc-155" style="edgeStyle=orthogonalEdgeStyle;rounded=0;orthogonalLoop=1;jettySize=auto;html=1;" edge="1" parent="WIyWlLk6GJQsqaUBKTNV-1" source="yMNnYsmY4ad9jijK5Zf2-184" target="ddzxB84qZO3PPZxsslgc-52">
          <mxGeometry relative="1" as="geometry">
            <Array as="points">
              <mxPoint x="1170" y="773" />
              <mxPoint x="1170" y="1388" />
            </Array>
          </mxGeometry>
        </mxCell>
        <mxCell id="ddzxB84qZO3PPZxsslgc-156" style="edgeStyle=orthogonalEdgeStyle;rounded=0;orthogonalLoop=1;jettySize=auto;html=1;entryX=1;entryY=0.5;entryDx=0;entryDy=0;" edge="1" parent="WIyWlLk6GJQsqaUBKTNV-1" source="yMNnYsmY4ad9jijK5Zf2-185" target="ddzxB84qZO3PPZxsslgc-57">
          <mxGeometry relative="1" as="geometry">
            <Array as="points">
              <mxPoint x="1180" y="747" />
              <mxPoint x="1180" y="1548" />
            </Array>
          </mxGeometry>
        </mxCell>
        <mxCell id="ddzxB84qZO3PPZxsslgc-157" style="edgeStyle=orthogonalEdgeStyle;rounded=0;orthogonalLoop=1;jettySize=auto;html=1;" edge="1" parent="WIyWlLk6GJQsqaUBKTNV-1" source="yMNnYsmY4ad9jijK5Zf2-177" target="ddzxB84qZO3PPZxsslgc-64">
          <mxGeometry relative="1" as="geometry">
            <Array as="points">
              <mxPoint x="1260" y="721" />
              <mxPoint x="1260" y="780" />
              <mxPoint x="1920" y="780" />
              <mxPoint x="1920" y="549" />
            </Array>
          </mxGeometry>
        </mxCell>
        <mxCell id="ddzxB84qZO3PPZxsslgc-159" style="edgeStyle=orthogonalEdgeStyle;rounded=0;orthogonalLoop=1;jettySize=auto;html=1;" edge="1" parent="WIyWlLk6GJQsqaUBKTNV-1" source="yMNnYsmY4ad9jijK5Zf2-178" target="ddzxB84qZO3PPZxsslgc-62">
          <mxGeometry relative="1" as="geometry">
            <Array as="points">
              <mxPoint x="1150" y="695" />
              <mxPoint x="1150" y="710" />
              <mxPoint x="1270" y="710" />
              <mxPoint x="1270" y="800" />
              <mxPoint x="1980" y="800" />
              <mxPoint x="1980" y="498" />
            </Array>
          </mxGeometry>
        </mxCell>
        <mxCell id="ddzxB84qZO3PPZxsslgc-160" style="edgeStyle=orthogonalEdgeStyle;rounded=0;orthogonalLoop=1;jettySize=auto;html=1;" edge="1" parent="WIyWlLk6GJQsqaUBKTNV-1" source="yMNnYsmY4ad9jijK5Zf2-179" target="ddzxB84qZO3PPZxsslgc-63">
          <mxGeometry relative="1" as="geometry">
            <Array as="points">
              <mxPoint x="1150" y="669" />
              <mxPoint x="1150" y="690" />
              <mxPoint x="1280" y="690" />
              <mxPoint x="1280" y="790" />
              <mxPoint x="1960" y="790" />
              <mxPoint x="1960" y="523" />
            </Array>
          </mxGeometry>
        </mxCell>
        <mxCell id="ddzxB84qZO3PPZxsslgc-161" style="edgeStyle=orthogonalEdgeStyle;rounded=0;orthogonalLoop=1;jettySize=auto;html=1;" edge="1" parent="WIyWlLk6GJQsqaUBKTNV-1" source="yMNnYsmY4ad9jijK5Zf2-71" target="ddzxB84qZO3PPZxsslgc-96">
          <mxGeometry relative="1" as="geometry" />
        </mxCell>
        <mxCell id="ddzxB84qZO3PPZxsslgc-162" style="edgeStyle=orthogonalEdgeStyle;rounded=0;orthogonalLoop=1;jettySize=auto;html=1;entryX=0.928;entryY=0.262;entryDx=0;entryDy=0;entryPerimeter=0;exitX=0;exitY=0.5;exitDx=0;exitDy=0;" edge="1" parent="WIyWlLk6GJQsqaUBKTNV-1" source="yMNnYsmY4ad9jijK5Zf2-70" target="ddzxB84qZO3PPZxsslgc-91">
          <mxGeometry relative="1" as="geometry">
            <Array as="points">
              <mxPoint x="170" y="797" />
              <mxPoint x="170" y="1552" />
            </Array>
          </mxGeometry>
        </mxCell>
        <mxCell id="ddzxB84qZO3PPZxsslgc-163" style="edgeStyle=orthogonalEdgeStyle;rounded=0;orthogonalLoop=1;jettySize=auto;html=1;exitX=1;exitY=0.5;exitDx=0;exitDy=0;" edge="1" parent="WIyWlLk6GJQsqaUBKTNV-1" source="em6dSbTbty4cNZg0iihS-0">
          <mxGeometry relative="1" as="geometry">
            <mxPoint x="1710" y="940" as="targetPoint" />
            <Array as="points">
              <mxPoint x="1150" y="799" />
              <mxPoint x="1150" y="830" />
              <mxPoint x="1390" y="830" />
              <mxPoint x="1390" y="939" />
            </Array>
          </mxGeometry>
        </mxCell>
        <mxCell id="ddzxB84qZO3PPZxsslgc-164" style="edgeStyle=orthogonalEdgeStyle;rounded=0;orthogonalLoop=1;jettySize=auto;html=1;" edge="1" parent="WIyWlLk6GJQsqaUBKTNV-1" source="yMNnYsmY4ad9jijK5Zf2-126" target="ddzxB84qZO3PPZxsslgc-47">
          <mxGeometry relative="1" as="geometry">
            <Array as="points">
              <mxPoint x="830" y="773" />
              <mxPoint x="830" y="965" />
            </Array>
          </mxGeometry>
        </mxCell>
        <mxCell id="ddzxB84qZO3PPZxsslgc-165" style="edgeStyle=orthogonalEdgeStyle;rounded=0;orthogonalLoop=1;jettySize=auto;html=1;" edge="1" parent="WIyWlLk6GJQsqaUBKTNV-1" source="yMNnYsmY4ad9jijK5Zf2-75" target="ddzxB84qZO3PPZxsslgc-48">
          <mxGeometry relative="1" as="geometry">
            <mxPoint x="1710" y="991" as="targetPoint" />
            <Array as="points">
              <mxPoint x="510" y="927" />
              <mxPoint x="510" y="1070" />
              <mxPoint x="1920" y="1070" />
              <mxPoint x="1920" y="981" />
            </Array>
          </mxGeometry>
        </mxCell>
        <mxCell id="ddzxB84qZO3PPZxsslgc-167" style="edgeStyle=orthogonalEdgeStyle;rounded=0;orthogonalLoop=1;jettySize=auto;html=1;entryX=0;entryY=0.5;entryDx=0;entryDy=0;" edge="1" parent="WIyWlLk6GJQsqaUBKTNV-1" source="yMNnYsmY4ad9jijK5Zf2-46" target="ddzxB84qZO3PPZxsslgc-71">
          <mxGeometry relative="1" as="geometry">
            <Array as="points">
              <mxPoint x="570" y="667" />
              <mxPoint x="570" y="-130" />
              <mxPoint x="1610" y="-130" />
              <mxPoint x="1610" y="53" />
            </Array>
          </mxGeometry>
        </mxCell>
        <mxCell id="ddzxB84qZO3PPZxsslgc-168" style="edgeStyle=orthogonalEdgeStyle;rounded=0;orthogonalLoop=1;jettySize=auto;html=1;" edge="1" parent="WIyWlLk6GJQsqaUBKTNV-1" source="yMNnYsmY4ad9jijK5Zf2-47" target="ddzxB84qZO3PPZxsslgc-72">
          <mxGeometry relative="1" as="geometry">
            <Array as="points">
              <mxPoint x="540" y="693" />
              <mxPoint x="540" y="-150" />
              <mxPoint x="1560" y="-150" />
              <mxPoint x="1560" y="79" />
            </Array>
          </mxGeometry>
        </mxCell>
        <mxCell id="ddzxB84qZO3PPZxsslgc-169" style="edgeStyle=orthogonalEdgeStyle;rounded=0;orthogonalLoop=1;jettySize=auto;html=1;entryX=0;entryY=0.5;entryDx=0;entryDy=0;" edge="1" parent="WIyWlLk6GJQsqaUBKTNV-1" source="yMNnYsmY4ad9jijK5Zf2-48" target="ddzxB84qZO3PPZxsslgc-73">
          <mxGeometry relative="1" as="geometry">
            <Array as="points">
              <mxPoint x="580" y="719" />
              <mxPoint x="580" y="-170" />
              <mxPoint x="1530" y="-170" />
              <mxPoint x="1530" y="105" />
            </Array>
          </mxGeometry>
        </mxCell>
        <mxCell id="ddzxB84qZO3PPZxsslgc-170" style="edgeStyle=orthogonalEdgeStyle;rounded=0;orthogonalLoop=1;jettySize=auto;html=1;" edge="1" parent="WIyWlLk6GJQsqaUBKTNV-1" source="yMNnYsmY4ad9jijK5Zf2-49">
          <mxGeometry relative="1" as="geometry">
            <mxPoint x="1640" y="131" as="targetPoint" />
            <Array as="points">
              <mxPoint x="510" y="745" />
              <mxPoint x="510" y="-190" />
              <mxPoint x="1500" y="-190" />
              <mxPoint x="1500" y="131" />
            </Array>
          </mxGeometry>
        </mxCell>
        <mxCell id="ddzxB84qZO3PPZxsslgc-171" style="edgeStyle=orthogonalEdgeStyle;rounded=0;orthogonalLoop=1;jettySize=auto;html=1;" edge="1" parent="WIyWlLk6GJQsqaUBKTNV-1" source="yMNnYsmY4ad9jijK5Zf2-72" target="ddzxB84qZO3PPZxsslgc-65">
          <mxGeometry relative="1" as="geometry">
            <Array as="points">
              <mxPoint x="520" y="849" />
              <mxPoint x="520" y="1310" />
              <mxPoint x="2020" y="1310" />
              <mxPoint x="2020" y="575" />
            </Array>
          </mxGeometry>
        </mxCell>
        <mxCell id="ddzxB84qZO3PPZxsslgc-172" style="edgeStyle=orthogonalEdgeStyle;rounded=0;orthogonalLoop=1;jettySize=auto;html=1;" edge="1" parent="WIyWlLk6GJQsqaUBKTNV-1" source="yMNnYsmY4ad9jijK5Zf2-73" target="ddzxB84qZO3PPZxsslgc-66">
          <mxGeometry relative="1" as="geometry">
            <Array as="points">
              <mxPoint x="530" y="875" />
              <mxPoint x="530" y="1330" />
              <mxPoint x="2050" y="1330" />
              <mxPoint x="2050" y="601" />
            </Array>
          </mxGeometry>
        </mxCell>
        <mxCell id="ddzxB84qZO3PPZxsslgc-173" style="edgeStyle=orthogonalEdgeStyle;rounded=0;orthogonalLoop=1;jettySize=auto;html=1;" edge="1" parent="WIyWlLk6GJQsqaUBKTNV-1" source="yMNnYsmY4ad9jijK5Zf2-74" target="ddzxB84qZO3PPZxsslgc-67">
          <mxGeometry relative="1" as="geometry">
            <Array as="points">
              <mxPoint x="570" y="901" />
              <mxPoint x="570" y="1340" />
              <mxPoint x="2070" y="1340" />
              <mxPoint x="2070" y="627" />
            </Array>
          </mxGeometry>
        </mxCell>
        <mxCell id="ddzxB84qZO3PPZxsslgc-174" style="edgeStyle=orthogonalEdgeStyle;rounded=0;orthogonalLoop=1;jettySize=auto;html=1;" edge="1" parent="WIyWlLk6GJQsqaUBKTNV-1" source="bi2sYFUUaKAIFgb6Iuu--1" target="ddzxB84qZO3PPZxsslgc-75">
          <mxGeometry relative="1" as="geometry">
            <Array as="points">
              <mxPoint x="560" y="771" />
              <mxPoint x="560" y="-210" />
              <mxPoint x="1470" y="-210" />
              <mxPoint x="1470" y="157" />
            </Array>
          </mxGeometry>
        </mxCell>
        <mxCell id="ddzxB84qZO3PPZxsslgc-175" value="Dim.DRT_DIMReturnStatus" style="swimlane;fontStyle=0;align=center;verticalAlign=top;childLayout=stackLayout;horizontal=1;startSize=26;horizontalStack=0;resizeParent=1;resizeLast=0;collapsible=1;marginBottom=0;rounded=1;shadow=0;strokeWidth=1;fillColor=#FAE5C7;strokeColor=#0F8B8D;labelBackgroundColor=none;fontColor=#143642;" vertex="1" parent="WIyWlLk6GJQsqaUBKTNV-1">
          <mxGeometry x="480" y="1430" width="190" height="130" as="geometry">
            <mxRectangle x="550" y="140" width="160" height="26" as="alternateBounds" />
          </mxGeometry>
        </mxCell>
        <mxCell id="ddzxB84qZO3PPZxsslgc-176" value="PK ** DRT_ReturnStatusKey" style="text;align=left;verticalAlign=top;spacingLeft=4;spacingRight=4;overflow=hidden;rotatable=0;points=[[0,0.5],[1,0.5]];portConstraint=eastwest;labelBackgroundColor=none;fontColor=#143642;rounded=1;" vertex="1" parent="ddzxB84qZO3PPZxsslgc-175">
          <mxGeometry y="26" width="190" height="26" as="geometry" />
        </mxCell>
        <mxCell id="ddzxB84qZO3PPZxsslgc-177" value="        DRT_ReturnStatusId" style="text;align=left;verticalAlign=top;spacingLeft=4;spacingRight=4;overflow=hidden;rotatable=0;points=[[0,0.5],[1,0.5]];portConstraint=eastwest;labelBackgroundColor=none;fontColor=#143642;rounded=1;" vertex="1" parent="ddzxB84qZO3PPZxsslgc-175">
          <mxGeometry y="52" width="190" height="26" as="geometry" />
        </mxCell>
        <mxCell id="ddzxB84qZO3PPZxsslgc-178" value="        DRT_ReturnStatusDesp" style="text;align=left;verticalAlign=top;spacingLeft=4;spacingRight=4;overflow=hidden;rotatable=0;points=[[0,0.5],[1,0.5]];portConstraint=eastwest;labelBackgroundColor=none;fontColor=#143642;rounded=1;" vertex="1" parent="ddzxB84qZO3PPZxsslgc-175">
          <mxGeometry y="78" width="190" height="26" as="geometry" />
        </mxCell>
        <mxCell id="ddzxB84qZO3PPZxsslgc-179" value="" style="line;html=1;strokeWidth=1;align=left;verticalAlign=middle;spacingTop=-1;spacingLeft=3;spacingRight=3;rotatable=0;labelPosition=right;points=[];portConstraint=eastwest;labelBackgroundColor=none;fillColor=#FAE5C7;strokeColor=#0F8B8D;fontColor=#143642;rounded=1;" vertex="1" parent="ddzxB84qZO3PPZxsslgc-175">
          <mxGeometry y="104" width="190" height="8" as="geometry" />
        </mxCell>
        <mxCell id="ddzxB84qZO3PPZxsslgc-180" style="edgeStyle=orthogonalEdgeStyle;rounded=0;orthogonalLoop=1;jettySize=auto;html=1;entryX=1;entryY=0.5;entryDx=0;entryDy=0;" edge="1" parent="WIyWlLk6GJQsqaUBKTNV-1" source="yMNnYsmY4ad9jijK5Zf2-123" target="ddzxB84qZO3PPZxsslgc-176">
          <mxGeometry relative="1" as="geometry">
            <Array as="points">
              <mxPoint x="600" y="747" />
              <mxPoint x="600" y="1420" />
              <mxPoint x="690" y="1420" />
              <mxPoint x="690" y="1469" />
            </Array>
          </mxGeometry>
        </mxCell>
        <mxCell id="ddzxB84qZO3PPZxsslgc-181" style="edgeStyle=orthogonalEdgeStyle;rounded=0;orthogonalLoop=1;jettySize=auto;html=1;" edge="1" parent="WIyWlLk6GJQsqaUBKTNV-1" source="yMNnYsmY4ad9jijK5Zf2-103" target="ddzxB84qZO3PPZxsslgc-70">
          <mxGeometry relative="1" as="geometry">
            <Array as="points">
              <mxPoint x="900" y="513" />
              <mxPoint x="900" y="-10" />
              <mxPoint x="1630" y="-10" />
              <mxPoint x="1630" y="28" />
            </Array>
          </mxGeometry>
        </mxCell>
        <mxCell id="ddzxB84qZO3PPZxsslgc-182" style="edgeStyle=orthogonalEdgeStyle;rounded=0;orthogonalLoop=1;jettySize=auto;html=1;entryX=0;entryY=0.5;entryDx=0;entryDy=0;" edge="1" parent="WIyWlLk6GJQsqaUBKTNV-1" source="yMNnYsmY4ad9jijK5Zf2-105" target="ddzxB84qZO3PPZxsslgc-76">
          <mxGeometry relative="1" as="geometry">
            <Array as="points">
              <mxPoint x="850" y="539" />
              <mxPoint x="850" y="130" />
              <mxPoint x="1230" y="130" />
              <mxPoint x="1230" y="183" />
            </Array>
          </mxGeometry>
        </mxCell>
        <mxCell id="ddzxB84qZO3PPZxsslgc-183" style="edgeStyle=orthogonalEdgeStyle;rounded=0;orthogonalLoop=1;jettySize=auto;html=1;" edge="1" parent="WIyWlLk6GJQsqaUBKTNV-1" source="yMNnYsmY4ad9jijK5Zf2-106">
          <mxGeometry relative="1" as="geometry">
            <mxPoint x="1640" y="190" as="targetPoint" />
            <Array as="points">
              <mxPoint x="860" y="565" />
              <mxPoint x="860" y="190" />
              <mxPoint x="1640" y="190" />
            </Array>
          </mxGeometry>
        </mxCell>
        <mxCell id="ddzxB84qZO3PPZxsslgc-184" style="edgeStyle=orthogonalEdgeStyle;rounded=0;orthogonalLoop=1;jettySize=auto;html=1;" edge="1" parent="WIyWlLk6GJQsqaUBKTNV-1" source="yMNnYsmY4ad9jijK5Zf2-108" target="ddzxB84qZO3PPZxsslgc-77">
          <mxGeometry relative="1" as="geometry">
            <Array as="points">
              <mxPoint x="870" y="591" />
              <mxPoint x="870" y="209" />
            </Array>
          </mxGeometry>
        </mxCell>
        <mxCell id="ddzxB84qZO3PPZxsslgc-185" style="edgeStyle=orthogonalEdgeStyle;rounded=0;orthogonalLoop=1;jettySize=auto;html=1;exitX=0;exitY=0.5;exitDx=0;exitDy=0;" edge="1" parent="WIyWlLk6GJQsqaUBKTNV-1" source="yMNnYsmY4ad9jijK5Zf2-112" target="ddzxB84qZO3PPZxsslgc-3">
          <mxGeometry relative="1" as="geometry">
            <Array as="points">
              <mxPoint x="590" y="617" />
              <mxPoint x="590" y="630" />
              <mxPoint x="550" y="630" />
              <mxPoint x="550" y="21" />
            </Array>
          </mxGeometry>
        </mxCell>
        <mxCell id="ddzxB84qZO3PPZxsslgc-186" style="edgeStyle=orthogonalEdgeStyle;rounded=0;orthogonalLoop=1;jettySize=auto;html=1;" edge="1" parent="WIyWlLk6GJQsqaUBKTNV-1" source="yMNnYsmY4ad9jijK5Zf2-118" target="ddzxB84qZO3PPZxsslgc-64">
          <mxGeometry relative="1" as="geometry">
            <Array as="points">
              <mxPoint x="840" y="643" />
              <mxPoint x="840" y="980" />
              <mxPoint x="1620" y="980" />
              <mxPoint x="1620" y="549" />
            </Array>
          </mxGeometry>
        </mxCell>
        <mxCell id="ddzxB84qZO3PPZxsslgc-187" style="edgeStyle=orthogonalEdgeStyle;rounded=0;orthogonalLoop=1;jettySize=auto;html=1;" edge="1" parent="WIyWlLk6GJQsqaUBKTNV-1" source="yMNnYsmY4ad9jijK5Zf2-119" target="ddzxB84qZO3PPZxsslgc-65">
          <mxGeometry relative="1" as="geometry">
            <Array as="points">
              <mxPoint x="850" y="669" />
              <mxPoint x="850" y="990" />
              <mxPoint x="1640" y="990" />
              <mxPoint x="1640" y="575" />
            </Array>
          </mxGeometry>
        </mxCell>
        <mxCell id="ddzxB84qZO3PPZxsslgc-188" style="edgeStyle=orthogonalEdgeStyle;rounded=0;orthogonalLoop=1;jettySize=auto;html=1;" edge="1" parent="WIyWlLk6GJQsqaUBKTNV-1" source="yMNnYsmY4ad9jijK5Zf2-120" target="ddzxB84qZO3PPZxsslgc-66">
          <mxGeometry relative="1" as="geometry">
            <Array as="points">
              <mxPoint x="860" y="695" />
              <mxPoint x="860" y="1010" />
              <mxPoint x="1660" y="1010" />
              <mxPoint x="1660" y="601" />
            </Array>
          </mxGeometry>
        </mxCell>
        <mxCell id="ddzxB84qZO3PPZxsslgc-189" style="edgeStyle=orthogonalEdgeStyle;rounded=0;orthogonalLoop=1;jettySize=auto;html=1;" edge="1" parent="WIyWlLk6GJQsqaUBKTNV-1" source="yMNnYsmY4ad9jijK5Zf2-121" target="ddzxB84qZO3PPZxsslgc-67">
          <mxGeometry relative="1" as="geometry">
            <Array as="points">
              <mxPoint x="890" y="721" />
              <mxPoint x="890" y="1030" />
              <mxPoint x="1680" y="1030" />
            </Array>
          </mxGeometry>
        </mxCell>
        <mxCell id="ddzxB84qZO3PPZxsslgc-190" style="edgeStyle=orthogonalEdgeStyle;rounded=0;orthogonalLoop=1;jettySize=auto;html=1;" edge="1" parent="WIyWlLk6GJQsqaUBKTNV-1" source="yMNnYsmY4ad9jijK5Zf2-164" target="ddzxB84qZO3PPZxsslgc-70">
          <mxGeometry relative="1" as="geometry">
            <Array as="points">
              <mxPoint x="1160" y="591" />
              <mxPoint x="1160" y="-270" />
              <mxPoint x="1890" y="-270" />
              <mxPoint x="1890" y="28" />
            </Array>
          </mxGeometry>
        </mxCell>
        <mxCell id="ddzxB84qZO3PPZxsslgc-191" style="edgeStyle=orthogonalEdgeStyle;rounded=0;orthogonalLoop=1;jettySize=auto;html=1;" edge="1" parent="WIyWlLk6GJQsqaUBKTNV-1" source="yMNnYsmY4ad9jijK5Zf2-165" target="ddzxB84qZO3PPZxsslgc-71">
          <mxGeometry relative="1" as="geometry">
            <Array as="points">
              <mxPoint x="1180" y="617" />
              <mxPoint x="1180" y="-290" />
              <mxPoint x="1910" y="-290" />
              <mxPoint x="1910" y="53" />
            </Array>
          </mxGeometry>
        </mxCell>
        <mxCell id="ddzxB84qZO3PPZxsslgc-192" style="edgeStyle=orthogonalEdgeStyle;rounded=0;orthogonalLoop=1;jettySize=auto;html=1;" edge="1" parent="WIyWlLk6GJQsqaUBKTNV-1" source="yMNnYsmY4ad9jijK5Zf2-167" target="ddzxB84qZO3PPZxsslgc-72">
          <mxGeometry relative="1" as="geometry">
            <Array as="points">
              <mxPoint x="1150" y="643" />
              <mxPoint x="1150" y="-310" />
              <mxPoint x="1930" y="-310" />
              <mxPoint x="1930" y="79" />
            </Array>
          </mxGeometry>
        </mxCell>
        <mxCell id="ddzxB84qZO3PPZxsslgc-193" style="edgeStyle=orthogonalEdgeStyle;rounded=0;orthogonalLoop=1;jettySize=auto;html=1;" edge="1" parent="WIyWlLk6GJQsqaUBKTNV-1" source="ddzxB84qZO3PPZxsslgc-73" target="ddzxB84qZO3PPZxsslgc-80">
          <mxGeometry relative="1" as="geometry" />
        </mxCell>
        <mxCell id="ddzxB84qZO3PPZxsslgc-194" style="edgeStyle=orthogonalEdgeStyle;rounded=0;orthogonalLoop=1;jettySize=auto;html=1;entryX=0;entryY=0.5;entryDx=0;entryDy=0;" edge="1" parent="WIyWlLk6GJQsqaUBKTNV-1" source="ddzxB84qZO3PPZxsslgc-74" target="ddzxB84qZO3PPZxsslgc-86">
          <mxGeometry relative="1" as="geometry" />
        </mxCell>
      </root>
    </mxGraphModel>
  </diagram>
</mxfile>
